<?xml version="1.0" encoding="UTF-8" standalone="no"?>
<!DOCTYPE svg PUBLIC "-//W3C//DTD SVG 1.1//EN"
 "http://www.w3.org/Graphics/SVG/1.1/DTD/svg11.dtd">
<!-- Generated by graphviz version 2.44.1 (20200629.0800)
 -->
<!-- Pages: 1 -->
<svg width="2109pt" height="400pt"
 viewBox="0.00 0.00 2109.00 400.00" xmlns="http://www.w3.org/2000/svg" xmlns:xlink="http://www.w3.org/1999/xlink">
<g id="graph0" class="graph" transform="scale(1 1) rotate(0) translate(4 396)">
<polygon fill="#ffffff" stroke="transparent" points="-4,4 -4,-396 2105,-396 2105,4 -4,4"/>
<!-- CAN_SensorHub -->
<g id="node1" class="node">
<title>CAN_SensorHub</title>
<polygon fill="#ffffff" stroke="black" points="219,-256 0,-256 0,-118 219,-118 219,-256"/>
<polygon fill="none" stroke="black" points="0.5,-233 0.5,-256 219.5,-256 219.5,-233 0.5,-233"/>
<text text-anchor="start" x="55" y="-240.8" font-family="arial" font-size="14.00">CAN_SensorHub</text>
<polygon fill="none" stroke="black" points="0.5,-210 0.5,-233 90.5,-233 90.5,-210 0.5,-210"/>
<text text-anchor="start" x="4.5" y="-217.8" font-family="arial" font-size="14.00">Hirose DF13</text>
<polygon fill="none" stroke="black" points="90.5,-210 90.5,-233 142.5,-233 142.5,-210 90.5,-210"/>
<text text-anchor="start" x="94.5" y="-217.8" font-family="arial" font-size="14.00">female</text>
<polygon fill="none" stroke="black" points="142.5,-210 142.5,-233 182.5,-233 182.5,-210 142.5,-210"/>
<text text-anchor="start" x="146.5" y="-217.8" font-family="arial" font-size="14.00">4&#45;pin</text>
<polygon fill="none" stroke="black" points="182.5,-210 182.5,-233 211.5,-233 211.5,-210 182.5,-210"/>
<text text-anchor="start" x="186.5" y="-217.8" font-family="arial" font-size="14.00">GY</text>
<polygon fill="#999999" stroke="transparent" points="211.5,-210 211.5,-233 219.5,-233 219.5,-210 211.5,-210"/>
<polygon fill="none" stroke="black" points="211.5,-210 211.5,-233 219.5,-233 219.5,-210 211.5,-210"/>
<polygon fill="none" stroke="black" points="0.5,-187 0.5,-210 130.5,-210 130.5,-187 0.5,-187"/>
<text text-anchor="start" x="49.5" y="-194.8" font-family="arial" font-size="14.00">GND</text>
<polygon fill="none" stroke="black" points="130.5,-187 130.5,-210 219.5,-210 219.5,-187 130.5,-187"/>
<text text-anchor="start" x="170.5" y="-194.8" font-family="arial" font-size="14.00">1</text>
<polygon fill="none" stroke="black" points="0.5,-164 0.5,-187 130.5,-187 130.5,-164 0.5,-164"/>
<text text-anchor="start" x="42" y="-171.8" font-family="arial" font-size="14.00">CAN_L</text>
<polygon fill="none" stroke="black" points="130.5,-164 130.5,-187 219.5,-187 219.5,-164 130.5,-164"/>
<text text-anchor="start" x="170.5" y="-171.8" font-family="arial" font-size="14.00">2</text>
<polygon fill="none" stroke="black" points="0.5,-141 0.5,-164 130.5,-164 130.5,-141 0.5,-141"/>
<text text-anchor="start" x="41" y="-148.8" font-family="arial" font-size="14.00">CAN_H</text>
<polygon fill="none" stroke="black" points="130.5,-141 130.5,-164 219.5,-164 219.5,-141 130.5,-141"/>
<text text-anchor="start" x="170.5" y="-148.8" font-family="arial" font-size="14.00">3</text>
<polygon fill="none" stroke="black" points="0.5,-118 0.5,-141 130.5,-141 130.5,-118 0.5,-118"/>
<text text-anchor="start" x="53" y="-125.8" font-family="arial" font-size="14.00">Vcc</text>
<polygon fill="none" stroke="black" points="130.5,-118 130.5,-141 219.5,-141 219.5,-118 130.5,-118"/>
<text text-anchor="start" x="170.5" y="-125.8" font-family="arial" font-size="14.00">4</text>
</g>
<!-- Cable_Stub_1 -->
<g id="node12" class="node">
<title>Cable_Stub_1</title>
<polygon fill="#ffffff" stroke="black" stroke-dasharray="5,2" points="607,-288 363,-288 363,-104 607,-104 607,-288"/>
<polygon fill="none" stroke="black" points="363,-265 363,-288 607,-288 607,-265 363,-265"/>
<text text-anchor="start" x="439" y="-272.8" font-family="arial" font-size="14.00">Cable_Stub_1</text>
<polygon fill="none" stroke="black" points="363,-242 363,-265 420,-265 420,-242 363,-242"/>
<text text-anchor="start" x="376" y="-249.8" font-family="arial" font-size="14.00">CAN</text>
<polygon fill="none" stroke="black" points="420,-242 420,-265 462,-265 462,-242 420,-242"/>
<text text-anchor="start" x="433" y="-249.8" font-family="arial" font-size="14.00">4x</text>
<polygon fill="none" stroke="black" points="462,-242 462,-265 544,-265 544,-242 462,-242"/>
<text text-anchor="start" x="475" y="-249.8" font-family="arial" font-size="14.00">AWG 28</text>
<polygon fill="none" stroke="black" points="544,-242 544,-265 607,-265 607,-242 544,-242"/>
<text text-anchor="start" x="557" y="-249.8" font-family="arial" font-size="14.00">0.2 m</text>
<text text-anchor="start" x="450" y="-228.8" font-family="arial" font-size="14.00"> </text>
<text text-anchor="start" x="373.5" y="-209.8" font-family="arial" font-size="14.00">CAN_SensorHub:1:GND</text>
<text text-anchor="start" x="545" y="-209.8" font-family="arial" font-size="14.00"> &#160;&#160;&#160;&#160;BK &#160;&#160;&#160;</text>
<polygon fill="#000000" stroke="transparent" points="363,-202 363,-204 607,-204 607,-202 363,-202"/>
<polygon fill="#000000" stroke="transparent" points="363,-200 363,-202 607,-202 607,-200 363,-200"/>
<polygon fill="#000000" stroke="transparent" points="363,-198 363,-200 607,-200 607,-198 363,-198"/>
<text text-anchor="start" x="366" y="-184.8" font-family="arial" font-size="14.00">CAN_SensorHub:2:CAN_L</text>
<text text-anchor="start" x="543" y="-184.8" font-family="arial" font-size="14.00"> &#160;&#160;&#160;&#160;WH &#160;&#160;&#160;</text>
<polygon fill="#000000" stroke="transparent" points="363,-177 363,-179 607,-179 607,-177 363,-177"/>
<polygon fill="#ffffff" stroke="transparent" points="363,-175 363,-177 607,-177 607,-175 363,-175"/>
<polygon fill="#000000" stroke="transparent" points="363,-173 363,-175 607,-175 607,-173 363,-173"/>
<text text-anchor="start" x="365" y="-159.8" font-family="arial" font-size="14.00">CAN_SensorHub:3:CAN_H</text>
<text text-anchor="start" x="545" y="-159.8" font-family="arial" font-size="14.00"> &#160;&#160;&#160;&#160;BU &#160;&#160;&#160;</text>
<polygon fill="#000000" stroke="transparent" points="363,-152 363,-154 607,-154 607,-152 363,-152"/>
<polygon fill="#0066ff" stroke="transparent" points="363,-150 363,-152 607,-152 607,-150 363,-150"/>
<polygon fill="#000000" stroke="transparent" points="363,-148 363,-150 607,-150 607,-148 363,-148"/>
<text text-anchor="start" x="376.5" y="-134.8" font-family="arial" font-size="14.00">CAN_SensorHub:4:Vcc</text>
<text text-anchor="start" x="544.5" y="-134.8" font-family="arial" font-size="14.00"> &#160;&#160;&#160;&#160;RD &#160;&#160;&#160;</text>
<polygon fill="#000000" stroke="transparent" points="363,-127 363,-129 607,-129 607,-127 363,-127"/>
<polygon fill="#ff0000" stroke="transparent" points="363,-125 363,-127 607,-127 607,-125 363,-125"/>
<polygon fill="#000000" stroke="transparent" points="363,-123 363,-125 607,-125 607,-123 363,-123"/>
<text text-anchor="start" x="450" y="-109.8" font-family="arial" font-size="14.00"> </text>
</g>
<!-- CAN_SensorHub&#45;&#45;Cable_Stub_1 -->
<g id="edge1" class="edge">
<title>CAN_SensorHub:e&#45;&#45;Cable_Stub_1:w</title>
<path fill="none" stroke="#000000" stroke-width="2" d="M219,-197C283.25,-197.02 299.24,-199.02 363,-199"/>
<path fill="none" stroke="#000000" stroke-width="2" d="M219,-199C283.01,-199 298.99,-201 363,-201"/>
<path fill="none" stroke="#000000" stroke-width="2" d="M219,-201C282.76,-200.98 298.75,-202.98 363,-203"/>
</g>
<!-- CAN_SensorHub&#45;&#45;Cable_Stub_1 -->
<g id="edge3" class="edge">
<title>CAN_SensorHub:e&#45;&#45;Cable_Stub_1:w</title>
<path fill="none" stroke="#000000" stroke-width="2" d="M219,-173C283.13,-173 299.12,-174 363,-174"/>
<path fill="none" stroke="#ffffff" stroke-width="2" d="M219,-175C283,-175 299,-176 363,-176"/>
<path fill="none" stroke="#000000" stroke-width="2" d="M219,-177C282.88,-177 298.87,-178 363,-178"/>
</g>
<!-- CAN_SensorHub&#45;&#45;Cable_Stub_1 -->
<g id="edge5" class="edge">
<title>CAN_SensorHub:e&#45;&#45;Cable_Stub_1:w</title>
<path fill="none" stroke="#000000" stroke-width="2" d="M219,-150C282.88,-150 298.87,-149 363,-149"/>
<path fill="none" stroke="#0066ff" stroke-width="2" d="M219,-152C283,-152 299,-151 363,-151"/>
<path fill="none" stroke="#000000" stroke-width="2" d="M219,-154C283.13,-154 299.12,-153 363,-153"/>
</g>
<!-- CAN_SensorHub&#45;&#45;Cable_Stub_1 -->
<g id="edge7" class="edge">
<title>CAN_SensorHub:e&#45;&#45;Cable_Stub_1:w</title>
<path fill="none" stroke="#000000" stroke-width="2" d="M219,-127C282.64,-127.03 298.62,-124.03 363,-124"/>
<path fill="none" stroke="#ff0000" stroke-width="2" d="M219,-129C283.01,-129 298.99,-126 363,-126"/>
<path fill="none" stroke="#000000" stroke-width="2" d="M219,-131C283.38,-130.97 299.36,-127.97 363,-128"/>
</g>
<!-- F1 -->
<g id="node2" class="node">
<title>F1</title>
<polygon fill="#ffffff" stroke="black" points="820,-245.5 751,-245.5 751,-222.5 820,-222.5 820,-245.5"/>
<polygon fill="none" stroke="black" points="751.5,-222 751.5,-245 820.5,-245 820.5,-222 751.5,-222"/>
<text text-anchor="start" x="755.5" y="-229.8" font-family="arial" font-size="14.00">SPC&#45;01T</text>
</g>
<!-- Cable_Main -->
<g id="node13" class="node">
<title>Cable_Main</title>
<polygon fill="#ffffff" stroke="black" points="1136,-288 964,-288 964,-104 1136,-104 1136,-288"/>
<polygon fill="none" stroke="black" points="964,-265 964,-288 1136,-288 1136,-265 964,-265"/>
<text text-anchor="start" x="1012" y="-272.8" font-family="arial" font-size="14.00">Cable_Main</text>
<polygon fill="none" stroke="black" points="964,-242 964,-265 1003,-265 1003,-242 964,-242"/>
<text text-anchor="start" x="968" y="-249.8" font-family="arial" font-size="14.00">CAN</text>
<polygon fill="none" stroke="black" points="1003,-242 1003,-265 1027,-265 1027,-242 1003,-242"/>
<text text-anchor="start" x="1007" y="-249.8" font-family="arial" font-size="14.00">4x</text>
<polygon fill="none" stroke="black" points="1027,-242 1027,-265 1091,-265 1091,-242 1027,-242"/>
<text text-anchor="start" x="1031" y="-249.8" font-family="arial" font-size="14.00">AWG 28</text>
<polygon fill="none" stroke="black" points="1091,-242 1091,-265 1136,-265 1136,-242 1091,-242"/>
<text text-anchor="start" x="1095" y="-249.8" font-family="arial" font-size="14.00">0.2 m</text>
<text text-anchor="start" x="985" y="-228.8" font-family="arial" font-size="14.00"> </text>
<text text-anchor="start" x="1031" y="-209.8" font-family="arial" font-size="14.00"> &#160;&#160;&#160;&#160;1 &#160;&#160;&#160;</text>
<polygon fill="#000000" stroke="transparent" points="964,-202 964,-204 1136,-204 1136,-202 964,-202"/>
<polygon fill="#ffffff" stroke="transparent" points="964,-200 964,-202 1136,-202 1136,-200 964,-200"/>
<polygon fill="#000000" stroke="transparent" points="964,-198 964,-200 1136,-200 1136,-198 964,-198"/>
<text text-anchor="start" x="1031" y="-184.8" font-family="arial" font-size="14.00"> &#160;&#160;&#160;&#160;2 &#160;&#160;&#160;</text>
<polygon fill="#000000" stroke="transparent" points="964,-177 964,-179 1136,-179 1136,-177 964,-177"/>
<polygon fill="#ffffff" stroke="transparent" points="964,-175 964,-177 1136,-177 1136,-175 964,-175"/>
<polygon fill="#000000" stroke="transparent" points="964,-173 964,-175 1136,-175 1136,-173 964,-173"/>
<text text-anchor="start" x="1031" y="-159.8" font-family="arial" font-size="14.00"> &#160;&#160;&#160;&#160;3 &#160;&#160;&#160;</text>
<polygon fill="#000000" stroke="transparent" points="964,-152 964,-154 1136,-154 1136,-152 964,-152"/>
<polygon fill="#ffffff" stroke="transparent" points="964,-150 964,-152 1136,-152 1136,-150 964,-150"/>
<polygon fill="#000000" stroke="transparent" points="964,-148 964,-150 1136,-150 1136,-148 964,-148"/>
<text text-anchor="start" x="1031" y="-134.8" font-family="arial" font-size="14.00"> &#160;&#160;&#160;&#160;4 &#160;&#160;&#160;</text>
<polygon fill="#000000" stroke="transparent" points="964,-127 964,-129 1136,-129 1136,-127 964,-127"/>
<polygon fill="#ffffff" stroke="transparent" points="964,-125 964,-127 1136,-127 1136,-125 964,-125"/>
<polygon fill="#000000" stroke="transparent" points="964,-123 964,-125 1136,-125 1136,-123 964,-123"/>
<text text-anchor="start" x="985" y="-109.8" font-family="arial" font-size="14.00"> </text>
</g>
<!-- F1&#45;&#45;Cable_Main -->
<g id="edge9" class="edge">
<title>F1:e&#45;&#45;Cable_Main:w</title>
<path fill="none" stroke="#000000" stroke-width="2" d="M820,-232C883.79,-233.28 896.47,-200.28 964,-199"/>
<path fill="none" stroke="#ffffff" stroke-width="2" d="M820,-234C885.66,-234 898.34,-201 964,-201"/>
<path fill="none" stroke="#000000" stroke-width="2" d="M820,-236C887.53,-234.72 900.21,-201.72 964,-203"/>
</g>
<!-- F2 -->
<g id="node3" class="node">
<title>F2</title>
<polygon fill="#ffffff" stroke="black" points="820,-198.5 751,-198.5 751,-175.5 820,-175.5 820,-198.5"/>
<polygon fill="none" stroke="black" points="751.5,-175 751.5,-198 820.5,-198 820.5,-175 751.5,-175"/>
<text text-anchor="start" x="755.5" y="-182.8" font-family="arial" font-size="14.00">SPC&#45;01T</text>
</g>
<!-- F2&#45;&#45;Cable_Main -->
<g id="edge11" class="edge">
<title>F2:e&#45;&#45;Cable_Main:w</title>
<path fill="none" stroke="#000000" stroke-width="2" d="M820,-185C883.04,-185.36 898.66,-174.36 964,-174"/>
<path fill="none" stroke="#ffffff" stroke-width="2" d="M820,-187C884.19,-187 899.81,-176 964,-176"/>
<path fill="none" stroke="#000000" stroke-width="2" d="M820,-189C885.34,-188.64 900.96,-177.64 964,-178"/>
</g>
<!-- F3 -->
<g id="node4" class="node">
<title>F3</title>
<polygon fill="#ffffff" stroke="black" points="820,-151.5 751,-151.5 751,-128.5 820,-128.5 820,-151.5"/>
<polygon fill="none" stroke="black" points="751.5,-128 751.5,-151 820.5,-151 820.5,-128 751.5,-128"/>
<text text-anchor="start" x="755.5" y="-135.8" font-family="arial" font-size="14.00">SPC&#45;01T</text>
</g>
<!-- F3&#45;&#45;Cable_Main -->
<g id="edge13" class="edge">
<title>F3:e&#45;&#45;Cable_Main:w</title>
<path fill="none" stroke="#000000" stroke-width="2" d="M820,-138C885.34,-138.36 900.96,-149.36 964,-149"/>
<path fill="none" stroke="#ffffff" stroke-width="2" d="M820,-140C884.19,-140 899.81,-151 964,-151"/>
<path fill="none" stroke="#000000" stroke-width="2" d="M820,-142C883.04,-141.64 898.66,-152.64 964,-153"/>
</g>
<!-- F4 -->
<g id="node5" class="node">
<title>F4</title>
<polygon fill="#ffffff" stroke="black" points="820,-104.5 751,-104.5 751,-81.5 820,-81.5 820,-104.5"/>
<polygon fill="none" stroke="black" points="751.5,-81 751.5,-104 820.5,-104 820.5,-81 751.5,-81"/>
<text text-anchor="start" x="755.5" y="-88.8" font-family="arial" font-size="14.00">SPC&#45;01T</text>
</g>
<!-- F4&#45;&#45;Cable_Main -->
<g id="edge15" class="edge">
<title>F4:e&#45;&#45;Cable_Main:w</title>
<path fill="none" stroke="#000000" stroke-width="2" d="M820,-91C887.53,-92.28 900.21,-125.28 964,-124"/>
<path fill="none" stroke="#ffffff" stroke-width="2" d="M820,-93C885.66,-93 898.34,-126 964,-126"/>
<path fill="none" stroke="#000000" stroke-width="2" d="M820,-95C883.79,-93.72 896.47,-126.72 964,-128"/>
</g>
<!-- F5 -->
<g id="node6" class="node">
<title>F5</title>
<polygon fill="#ffffff" stroke="black" points="1349,-245.5 1280,-245.5 1280,-222.5 1349,-222.5 1349,-245.5"/>
<polygon fill="none" stroke="black" points="1280.5,-222 1280.5,-245 1349.5,-245 1349.5,-222 1280.5,-222"/>
<text text-anchor="start" x="1284.5" y="-229.8" font-family="arial" font-size="14.00">SPC&#45;01T</text>
</g>
<!-- Cable_Stub_2 -->
<g id="node14" class="node">
<title>Cable_Stub_2</title>
<polygon fill="#ffffff" stroke="black" stroke-dasharray="5,2" points="1722,-392 1509,-392 1509,-208 1722,-208 1722,-392"/>
<polygon fill="none" stroke="black" points="1509.5,-369 1509.5,-392 1722.5,-392 1722.5,-369 1509.5,-369"/>
<text text-anchor="start" x="1570" y="-376.8" font-family="arial" font-size="14.00">Cable_Stub_2</text>
<polygon fill="none" stroke="black" points="1509.5,-346 1509.5,-369 1559.5,-369 1559.5,-346 1509.5,-346"/>
<text text-anchor="start" x="1519" y="-353.8" font-family="arial" font-size="14.00">CAN</text>
<polygon fill="none" stroke="black" points="1559.5,-346 1559.5,-369 1593.5,-369 1593.5,-346 1559.5,-346"/>
<text text-anchor="start" x="1568.5" y="-353.8" font-family="arial" font-size="14.00">4x</text>
<polygon fill="none" stroke="black" points="1593.5,-346 1593.5,-369 1667.5,-369 1667.5,-346 1593.5,-346"/>
<text text-anchor="start" x="1602.5" y="-353.8" font-family="arial" font-size="14.00">AWG 28</text>
<polygon fill="none" stroke="black" points="1667.5,-346 1667.5,-369 1722.5,-369 1722.5,-346 1667.5,-346"/>
<text text-anchor="start" x="1676.5" y="-353.8" font-family="arial" font-size="14.00">0.2 m</text>
<text text-anchor="start" x="1511.5" y="-332.8" font-family="arial" font-size="14.00"> </text>
<text text-anchor="start" x="1521.5" y="-313.8" font-family="arial" font-size="14.00"> &#160;&#160;&#160;&#160;BK &#160;&#160;&#160;</text>
<text text-anchor="start" x="1589.5" y="-313.8" font-family="arial" font-size="14.00">CAN_Brake:1:GND</text>
<polygon fill="#000000" stroke="transparent" points="1509.5,-306 1509.5,-308 1722.5,-308 1722.5,-306 1509.5,-306"/>
<polygon fill="#000000" stroke="transparent" points="1509.5,-304 1509.5,-306 1722.5,-306 1722.5,-304 1509.5,-304"/>
<polygon fill="#000000" stroke="transparent" points="1509.5,-302 1509.5,-304 1722.5,-304 1722.5,-302 1509.5,-302"/>
<text text-anchor="start" x="1519.5" y="-288.8" font-family="arial" font-size="14.00"> &#160;&#160;&#160;&#160;WH &#160;&#160;&#160;</text>
<text text-anchor="start" x="1582" y="-288.8" font-family="arial" font-size="14.00">CAN_Brake:2:CAN_L</text>
<polygon fill="#000000" stroke="transparent" points="1509.5,-281 1509.5,-283 1722.5,-283 1722.5,-281 1509.5,-281"/>
<polygon fill="#ffffff" stroke="transparent" points="1509.5,-279 1509.5,-281 1722.5,-281 1722.5,-279 1509.5,-279"/>
<polygon fill="#000000" stroke="transparent" points="1509.5,-277 1509.5,-279 1722.5,-279 1722.5,-277 1509.5,-277"/>
<text text-anchor="start" x="1521.5" y="-263.8" font-family="arial" font-size="14.00"> &#160;&#160;&#160;&#160;BU &#160;&#160;&#160;</text>
<text text-anchor="start" x="1581.5" y="-263.8" font-family="arial" font-size="14.00">CAN_Brake:3:CAN_H</text>
<polygon fill="#000000" stroke="transparent" points="1509.5,-256 1509.5,-258 1722.5,-258 1722.5,-256 1509.5,-256"/>
<polygon fill="#0066ff" stroke="transparent" points="1509.5,-254 1509.5,-256 1722.5,-256 1722.5,-254 1509.5,-254"/>
<polygon fill="#000000" stroke="transparent" points="1509.5,-252 1509.5,-254 1722.5,-254 1722.5,-252 1509.5,-252"/>
<text text-anchor="start" x="1521" y="-238.8" font-family="arial" font-size="14.00"> &#160;&#160;&#160;&#160;RD &#160;&#160;&#160;</text>
<text text-anchor="start" x="1593" y="-238.8" font-family="arial" font-size="14.00">CAN_Brake:4:Vcc</text>
<polygon fill="#000000" stroke="transparent" points="1509.5,-231 1509.5,-233 1722.5,-233 1722.5,-231 1509.5,-231"/>
<polygon fill="#ff0000" stroke="transparent" points="1509.5,-229 1509.5,-231 1722.5,-231 1722.5,-229 1509.5,-229"/>
<polygon fill="#000000" stroke="transparent" points="1509.5,-227 1509.5,-229 1722.5,-229 1722.5,-227 1509.5,-227"/>
<text text-anchor="start" x="1511.5" y="-213.8" font-family="arial" font-size="14.00"> </text>
</g>
<!-- F5&#45;&#45;Cable_Stub_2 -->
<g id="edge17" class="edge">
<title>F5:e&#45;&#45;Cable_Stub_2:w</title>
<path fill="none" stroke="#000000" stroke-width="2" d="M1349,-232C1428.59,-233.88 1432.9,-304.88 1508.5,-303"/>
<path fill="none" stroke="#000000" stroke-width="2" d="M1349,-234C1426.6,-234 1430.9,-305 1508.5,-305"/>
<path fill="none" stroke="#000000" stroke-width="2" d="M1349,-236C1424.6,-234.12 1428.91,-305.12 1508.5,-307"/>
</g>
<!-- Cable_Stub_3 -->
<g id="node15" class="node">
<title>Cable_Stub_3</title>
<polygon fill="#ffffff" stroke="black" stroke-dasharray="5,2" points="1738,-184 1493,-184 1493,0 1738,0 1738,-184"/>
<polygon fill="none" stroke="black" points="1493.5,-161 1493.5,-184 1738.5,-184 1738.5,-161 1493.5,-161"/>
<text text-anchor="start" x="1570" y="-168.8" font-family="arial" font-size="14.00">Cable_Stub_3</text>
<polygon fill="none" stroke="black" points="1493.5,-138 1493.5,-161 1551.5,-161 1551.5,-138 1493.5,-138"/>
<text text-anchor="start" x="1507" y="-145.8" font-family="arial" font-size="14.00">CAN</text>
<polygon fill="none" stroke="black" points="1551.5,-138 1551.5,-161 1593.5,-161 1593.5,-138 1551.5,-138"/>
<text text-anchor="start" x="1564.5" y="-145.8" font-family="arial" font-size="14.00">4x</text>
<polygon fill="none" stroke="black" points="1593.5,-138 1593.5,-161 1675.5,-161 1675.5,-138 1593.5,-138"/>
<text text-anchor="start" x="1606.5" y="-145.8" font-family="arial" font-size="14.00">AWG 28</text>
<polygon fill="none" stroke="black" points="1675.5,-138 1675.5,-161 1738.5,-161 1738.5,-138 1675.5,-138"/>
<text text-anchor="start" x="1688.5" y="-145.8" font-family="arial" font-size="14.00">0.2 m</text>
<text text-anchor="start" x="1495.5" y="-124.8" font-family="arial" font-size="14.00"> </text>
<text text-anchor="start" x="1505.5" y="-105.8" font-family="arial" font-size="14.00"> &#160;&#160;&#160;&#160;BK &#160;&#160;&#160;</text>
<text text-anchor="start" x="1574" y="-105.8" font-family="arial" font-size="14.00">CAN_INS/GNSS:1:GND</text>
<polygon fill="#000000" stroke="transparent" points="1493.5,-98 1493.5,-100 1738.5,-100 1738.5,-98 1493.5,-98"/>
<polygon fill="#000000" stroke="transparent" points="1493.5,-96 1493.5,-98 1738.5,-98 1738.5,-96 1493.5,-96"/>
<polygon fill="#000000" stroke="transparent" points="1493.5,-94 1493.5,-96 1738.5,-96 1738.5,-94 1493.5,-94"/>
<text text-anchor="start" x="1503.5" y="-80.8" font-family="arial" font-size="14.00"> &#160;&#160;&#160;&#160;WH &#160;&#160;&#160;</text>
<text text-anchor="start" x="1566.5" y="-80.8" font-family="arial" font-size="14.00">CAN_INS/GNSS:2:CAN_L</text>
<polygon fill="#000000" stroke="transparent" points="1493.5,-73 1493.5,-75 1738.5,-75 1738.5,-73 1493.5,-73"/>
<polygon fill="#ffffff" stroke="transparent" points="1493.5,-71 1493.5,-73 1738.5,-73 1738.5,-71 1493.5,-71"/>
<polygon fill="#000000" stroke="transparent" points="1493.5,-69 1493.5,-71 1738.5,-71 1738.5,-69 1493.5,-69"/>
<text text-anchor="start" x="1505.5" y="-55.8" font-family="arial" font-size="14.00"> &#160;&#160;&#160;&#160;BU &#160;&#160;&#160;</text>
<text text-anchor="start" x="1565.5" y="-55.8" font-family="arial" font-size="14.00">CAN_INS/GNSS:3:CAN_H</text>
<polygon fill="#000000" stroke="transparent" points="1493.5,-48 1493.5,-50 1738.5,-50 1738.5,-48 1493.5,-48"/>
<polygon fill="#0066ff" stroke="transparent" points="1493.5,-46 1493.5,-48 1738.5,-48 1738.5,-46 1493.5,-46"/>
<polygon fill="#000000" stroke="transparent" points="1493.5,-44 1493.5,-46 1738.5,-46 1738.5,-44 1493.5,-44"/>
<text text-anchor="start" x="1505" y="-30.8" font-family="arial" font-size="14.00"> &#160;&#160;&#160;&#160;RD &#160;&#160;&#160;</text>
<text text-anchor="start" x="1577" y="-30.8" font-family="arial" font-size="14.00">CAN_INS/GNSS:4:Vcc</text>
<polygon fill="#000000" stroke="transparent" points="1493.5,-23 1493.5,-25 1738.5,-25 1738.5,-23 1493.5,-23"/>
<polygon fill="#ff0000" stroke="transparent" points="1493.5,-21 1493.5,-23 1738.5,-23 1738.5,-21 1493.5,-21"/>
<polygon fill="#000000" stroke="transparent" points="1493.5,-19 1493.5,-21 1738.5,-21 1738.5,-19 1493.5,-19"/>
<text text-anchor="start" x="1495.5" y="-5.8" font-family="arial" font-size="14.00"> </text>
</g>
<!-- F5&#45;&#45;Cable_Stub_3 -->
<g id="edge25" class="edge">
<title>F5:e&#45;&#45;Cable_Stub_3:w</title>
<path fill="none" stroke="#000000" stroke-width="2" d="M1349,-232C1435.39,-234.46 1402.72,-97.46 1493,-95"/>
<path fill="none" stroke="#000000" stroke-width="2" d="M1349,-234C1437.34,-234 1404.66,-97 1493,-97"/>
<path fill="none" stroke="#000000" stroke-width="2" d="M1349,-236C1439.28,-233.54 1406.61,-96.54 1493,-99"/>
</g>
<!-- F6 -->
<g id="node7" class="node">
<title>F6</title>
<polygon fill="#ffffff" stroke="black" points="1349,-198.5 1280,-198.5 1280,-175.5 1349,-175.5 1349,-198.5"/>
<polygon fill="none" stroke="black" points="1280.5,-175 1280.5,-198 1349.5,-198 1349.5,-175 1280.5,-175"/>
<text text-anchor="start" x="1284.5" y="-182.8" font-family="arial" font-size="14.00">SPC&#45;01T</text>
</g>
<!-- F6&#45;&#45;Cable_Stub_2 -->
<g id="edge19" class="edge">
<title>F6:e&#45;&#45;Cable_Stub_2:w</title>
<path fill="none" stroke="#000000" stroke-width="2" d="M1349,-185C1433.06,-187.1 1428.44,-280.1 1508.5,-278"/>
<path fill="none" stroke="#ffffff" stroke-width="2" d="M1349,-187C1431.06,-187 1426.44,-280 1508.5,-280"/>
<path fill="none" stroke="#000000" stroke-width="2" d="M1349,-189C1429.06,-186.9 1424.44,-279.9 1508.5,-282"/>
</g>
<!-- F6&#45;&#45;Cable_Stub_3 -->
<g id="edge27" class="edge">
<title>F6:e&#45;&#45;Cable_Stub_3:w</title>
<path fill="none" stroke="#000000" stroke-width="2" d="M1349,-185C1428.93,-187.34 1409.12,-72.34 1493,-70"/>
<path fill="none" stroke="#ffffff" stroke-width="2" d="M1349,-187C1430.9,-187 1411.1,-72 1493,-72"/>
<path fill="none" stroke="#000000" stroke-width="2" d="M1349,-189C1432.88,-186.66 1413.07,-71.66 1493,-74"/>
</g>
<!-- F7 -->
<g id="node8" class="node">
<title>F7</title>
<polygon fill="#ffffff" stroke="black" points="1349,-151.5 1280,-151.5 1280,-128.5 1349,-128.5 1349,-151.5"/>
<polygon fill="none" stroke="black" points="1280.5,-128 1280.5,-151 1349.5,-151 1349.5,-128 1280.5,-128"/>
<text text-anchor="start" x="1284.5" y="-135.8" font-family="arial" font-size="14.00">SPC&#45;01T</text>
</g>
<!-- F7&#45;&#45;Cable_Stub_2 -->
<g id="edge21" class="edge">
<title>F7:e&#45;&#45;Cable_Stub_2:w</title>
<path fill="none" stroke="#000000" stroke-width="2" d="M1349,-138C1438.38,-140.26 1423.09,-255.26 1508.5,-253"/>
<path fill="none" stroke="#0066ff" stroke-width="2" d="M1349,-140C1436.39,-140 1421.11,-255 1508.5,-255"/>
<path fill="none" stroke="#000000" stroke-width="2" d="M1349,-142C1434.41,-139.74 1419.12,-254.74 1508.5,-257"/>
</g>
<!-- F7&#45;&#45;Cable_Stub_3 -->
<g id="edge29" class="edge">
<title>F7:e&#45;&#45;Cable_Stub_3:w</title>
<path fill="none" stroke="#000000" stroke-width="2" d="M1349,-138C1423.19,-140.18 1414.82,-47.18 1493,-45"/>
<path fill="none" stroke="#0066ff" stroke-width="2" d="M1349,-140C1425.19,-140 1416.81,-47 1493,-47"/>
<path fill="none" stroke="#000000" stroke-width="2" d="M1349,-142C1427.18,-139.82 1418.81,-46.82 1493,-49"/>
</g>
<!-- F8 -->
<g id="node9" class="node">
<title>F8</title>
<polygon fill="#ffffff" stroke="black" points="1349,-104.5 1280,-104.5 1280,-81.5 1349,-81.5 1349,-104.5"/>
<polygon fill="none" stroke="black" points="1280.5,-81 1280.5,-104 1349.5,-104 1349.5,-81 1280.5,-81"/>
<text text-anchor="start" x="1284.5" y="-88.8" font-family="arial" font-size="14.00">SPC&#45;01T</text>
</g>
<!-- F8&#45;&#45;Cable_Stub_2 -->
<g id="edge23" class="edge">
<title>F8:e&#45;&#45;Cable_Stub_2:w</title>
<path fill="none" stroke="#000000" stroke-width="2" d="M1349,-91C1444.41,-93.39 1417.01,-230.39 1508.5,-228"/>
<path fill="none" stroke="#ff0000" stroke-width="2" d="M1349,-93C1442.45,-93 1415.05,-230 1508.5,-230"/>
<path fill="none" stroke="#000000" stroke-width="2" d="M1349,-95C1440.49,-92.61 1413.09,-229.61 1508.5,-232"/>
</g>
<!-- F8&#45;&#45;Cable_Stub_3 -->
<g id="edge31" class="edge">
<title>F8:e&#45;&#45;Cable_Stub_3:w</title>
<path fill="none" stroke="#000000" stroke-width="2" d="M1349,-91C1418.36,-92.96 1419.64,-21.96 1493,-20"/>
<path fill="none" stroke="#ff0000" stroke-width="2" d="M1349,-93C1420.36,-93 1421.64,-22 1493,-22"/>
<path fill="none" stroke="#000000" stroke-width="2" d="M1349,-95C1422.36,-93.04 1423.64,-22.04 1493,-24"/>
</g>
<!-- CAN_Brake -->
<g id="node10" class="node">
<title>CAN_Brake</title>
<polygon fill="#ffffff" stroke="black" points="2101,-360 1882,-360 1882,-222 2101,-222 2101,-360"/>
<polygon fill="none" stroke="black" points="1882.5,-337 1882.5,-360 2101.5,-360 2101.5,-337 1882.5,-337"/>
<text text-anchor="start" x="1954" y="-344.8" font-family="arial" font-size="14.00">CAN_Brake</text>
<polygon fill="none" stroke="black" points="1882.5,-314 1882.5,-337 1972.5,-337 1972.5,-314 1882.5,-314"/>
<text text-anchor="start" x="1886.5" y="-321.8" font-family="arial" font-size="14.00">Hirose DF13</text>
<polygon fill="none" stroke="black" points="1972.5,-314 1972.5,-337 2024.5,-337 2024.5,-314 1972.5,-314"/>
<text text-anchor="start" x="1976.5" y="-321.8" font-family="arial" font-size="14.00">female</text>
<polygon fill="none" stroke="black" points="2024.5,-314 2024.5,-337 2064.5,-337 2064.5,-314 2024.5,-314"/>
<text text-anchor="start" x="2028.5" y="-321.8" font-family="arial" font-size="14.00">4&#45;pin</text>
<polygon fill="none" stroke="black" points="2064.5,-314 2064.5,-337 2093.5,-337 2093.5,-314 2064.5,-314"/>
<text text-anchor="start" x="2068.5" y="-321.8" font-family="arial" font-size="14.00">GY</text>
<polygon fill="#999999" stroke="transparent" points="2093.5,-314 2093.5,-337 2101.5,-337 2101.5,-314 2093.5,-314"/>
<polygon fill="none" stroke="black" points="2093.5,-314 2093.5,-337 2101.5,-337 2101.5,-314 2093.5,-314"/>
<polygon fill="none" stroke="black" points="1882.5,-291 1882.5,-314 1972.5,-314 1972.5,-291 1882.5,-291"/>
<text text-anchor="start" x="1923" y="-298.8" font-family="arial" font-size="14.00">1</text>
<polygon fill="none" stroke="black" points="1972.5,-291 1972.5,-314 2101.5,-314 2101.5,-291 1972.5,-291"/>
<text text-anchor="start" x="2021" y="-298.8" font-family="arial" font-size="14.00">GND</text>
<polygon fill="none" stroke="black" points="1882.5,-268 1882.5,-291 1972.5,-291 1972.5,-268 1882.5,-268"/>
<text text-anchor="start" x="1923" y="-275.8" font-family="arial" font-size="14.00">2</text>
<polygon fill="none" stroke="black" points="1972.5,-268 1972.5,-291 2101.5,-291 2101.5,-268 1972.5,-268"/>
<text text-anchor="start" x="2013.5" y="-275.8" font-family="arial" font-size="14.00">CAN_L</text>
<polygon fill="none" stroke="black" points="1882.5,-245 1882.5,-268 1972.5,-268 1972.5,-245 1882.5,-245"/>
<text text-anchor="start" x="1923" y="-252.8" font-family="arial" font-size="14.00">3</text>
<polygon fill="none" stroke="black" points="1972.5,-245 1972.5,-268 2101.5,-268 2101.5,-245 1972.5,-245"/>
<text text-anchor="start" x="2012.5" y="-252.8" font-family="arial" font-size="14.00">CAN_H</text>
<polygon fill="none" stroke="black" points="1882.5,-222 1882.5,-245 1972.5,-245 1972.5,-222 1882.5,-222"/>
<text text-anchor="start" x="1923" y="-229.8" font-family="arial" font-size="14.00">4</text>
<polygon fill="none" stroke="black" points="1972.5,-222 1972.5,-245 2101.5,-245 2101.5,-222 1972.5,-222"/>
<text text-anchor="start" x="2024.5" y="-229.8" font-family="arial" font-size="14.00">Vcc</text>
</g>
<!-- CAN_INS/GNSS -->
<g id="node11" class="node">
<title>CAN_INS/GNSS</title>
<polygon fill="#ffffff" stroke="black" points="2101,-152 1882,-152 1882,-14 2101,-14 2101,-152"/>
<polygon fill="none" stroke="black" points="1882.5,-129 1882.5,-152 2101.5,-152 2101.5,-129 1882.5,-129"/>
<text text-anchor="start" x="1938.5" y="-136.8" font-family="arial" font-size="14.00">CAN_INS/GNSS</text>
<polygon fill="none" stroke="black" points="1882.5,-106 1882.5,-129 1972.5,-129 1972.5,-106 1882.5,-106"/>
<text text-anchor="start" x="1886.5" y="-113.8" font-family="arial" font-size="14.00">Hirose DF13</text>
<polygon fill="none" stroke="black" points="1972.5,-106 1972.5,-129 2024.5,-129 2024.5,-106 1972.5,-106"/>
<text text-anchor="start" x="1976.5" y="-113.8" font-family="arial" font-size="14.00">female</text>
<polygon fill="none" stroke="black" points="2024.5,-106 2024.5,-129 2064.5,-129 2064.5,-106 2024.5,-106"/>
<text text-anchor="start" x="2028.5" y="-113.8" font-family="arial" font-size="14.00">4&#45;pin</text>
<polygon fill="none" stroke="black" points="2064.5,-106 2064.5,-129 2093.5,-129 2093.5,-106 2064.5,-106"/>
<text text-anchor="start" x="2068.5" y="-113.8" font-family="arial" font-size="14.00">GY</text>
<polygon fill="#999999" stroke="transparent" points="2093.5,-106 2093.5,-129 2101.5,-129 2101.5,-106 2093.5,-106"/>
<polygon fill="none" stroke="black" points="2093.5,-106 2093.5,-129 2101.5,-129 2101.5,-106 2093.5,-106"/>
<polygon fill="none" stroke="black" points="1882.5,-83 1882.5,-106 1972.5,-106 1972.5,-83 1882.5,-83"/>
<text text-anchor="start" x="1923" y="-90.8" font-family="arial" font-size="14.00">1</text>
<polygon fill="none" stroke="black" points="1972.5,-83 1972.5,-106 2101.5,-106 2101.5,-83 1972.5,-83"/>
<text text-anchor="start" x="2021" y="-90.8" font-family="arial" font-size="14.00">GND</text>
<polygon fill="none" stroke="black" points="1882.5,-60 1882.5,-83 1972.5,-83 1972.5,-60 1882.5,-60"/>
<text text-anchor="start" x="1923" y="-67.8" font-family="arial" font-size="14.00">2</text>
<polygon fill="none" stroke="black" points="1972.5,-60 1972.5,-83 2101.5,-83 2101.5,-60 1972.5,-60"/>
<text text-anchor="start" x="2013.5" y="-67.8" font-family="arial" font-size="14.00">CAN_L</text>
<polygon fill="none" stroke="black" points="1882.5,-37 1882.5,-60 1972.5,-60 1972.5,-37 1882.5,-37"/>
<text text-anchor="start" x="1923" y="-44.8" font-family="arial" font-size="14.00">3</text>
<polygon fill="none" stroke="black" points="1972.5,-37 1972.5,-60 2101.5,-60 2101.5,-37 1972.5,-37"/>
<text text-anchor="start" x="2012.5" y="-44.8" font-family="arial" font-size="14.00">CAN_H</text>
<polygon fill="none" stroke="black" points="1882.5,-14 1882.5,-37 1972.5,-37 1972.5,-14 1882.5,-14"/>
<text text-anchor="start" x="1923" y="-21.8" font-family="arial" font-size="14.00">4</text>
<polygon fill="none" stroke="black" points="1972.5,-14 1972.5,-37 2101.5,-37 2101.5,-14 1972.5,-14"/>
<text text-anchor="start" x="2024.5" y="-21.8" font-family="arial" font-size="14.00">Vcc</text>
</g>
<!-- Cable_Stub_1&#45;&#45;F1 -->
<g id="edge2" class="edge">
<title>Cable_Stub_1:e&#45;&#45;F1:w</title>
<path fill="none" stroke="#000000" stroke-width="2" d="M607,-199C674.53,-200.28 687.21,-233.28 751,-232"/>
<path fill="none" stroke="#000000" stroke-width="2" d="M607,-201C672.66,-201 685.34,-234 751,-234"/>
<path fill="none" stroke="#000000" stroke-width="2" d="M607,-203C670.79,-201.72 683.47,-234.72 751,-236"/>
</g>
<!-- Cable_Stub_1&#45;&#45;F2 -->
<g id="edge4" class="edge">
<title>Cable_Stub_1:e&#45;&#45;F2:w</title>
<path fill="none" stroke="#000000" stroke-width="2" d="M607,-174C672.34,-174.36 687.96,-185.36 751,-185"/>
<path fill="none" stroke="#ffffff" stroke-width="2" d="M607,-176C671.19,-176 686.81,-187 751,-187"/>
<path fill="none" stroke="#000000" stroke-width="2" d="M607,-178C670.04,-177.64 685.66,-188.64 751,-189"/>
</g>
<!-- Cable_Stub_1&#45;&#45;F3 -->
<g id="edge6" class="edge">
<title>Cable_Stub_1:e&#45;&#45;F3:w</title>
<path fill="none" stroke="#000000" stroke-width="2" d="M607,-149C670.04,-149.36 685.66,-138.36 751,-138"/>
<path fill="none" stroke="#0066ff" stroke-width="2" d="M607,-151C671.19,-151 686.81,-140 751,-140"/>
<path fill="none" stroke="#000000" stroke-width="2" d="M607,-153C672.34,-152.64 687.96,-141.64 751,-142"/>
</g>
<!-- Cable_Stub_1&#45;&#45;F4 -->
<g id="edge8" class="edge">
<title>Cable_Stub_1:e&#45;&#45;F4:w</title>
<path fill="none" stroke="#000000" stroke-width="2" d="M607,-124C670.79,-125.28 683.47,-92.28 751,-91"/>
<path fill="none" stroke="#ff0000" stroke-width="2" d="M607,-126C672.66,-126 685.34,-93 751,-93"/>
<path fill="none" stroke="#000000" stroke-width="2" d="M607,-128C674.53,-126.72 687.21,-93.72 751,-95"/>
</g>
<!-- Cable_Main&#45;&#45;F5 -->
<g id="edge10" class="edge">
<title>Cable_Main:e&#45;&#45;F5:w</title>
<path fill="none" stroke="#000000" stroke-width="2" d="M1136,-199C1203.53,-200.28 1216.21,-233.28 1280,-232"/>
<path fill="none" stroke="#ffffff" stroke-width="2" d="M1136,-201C1201.66,-201 1214.34,-234 1280,-234"/>
<path fill="none" stroke="#000000" stroke-width="2" d="M1136,-203C1199.79,-201.72 1212.47,-234.72 1280,-236"/>
</g>
<!-- Cable_Main&#45;&#45;F6 -->
<g id="edge12" class="edge">
<title>Cable_Main:e&#45;&#45;F6:w</title>
<path fill="none" stroke="#000000" stroke-width="2" d="M1136,-174C1201.34,-174.36 1216.96,-185.36 1280,-185"/>
<path fill="none" stroke="#ffffff" stroke-width="2" d="M1136,-176C1200.19,-176 1215.81,-187 1280,-187"/>
<path fill="none" stroke="#000000" stroke-width="2" d="M1136,-178C1199.04,-177.64 1214.66,-188.64 1280,-189"/>
</g>
<!-- Cable_Main&#45;&#45;F7 -->
<g id="edge14" class="edge">
<title>Cable_Main:e&#45;&#45;F7:w</title>
<path fill="none" stroke="#000000" stroke-width="2" d="M1136,-149C1199.04,-149.36 1214.66,-138.36 1280,-138"/>
<path fill="none" stroke="#ffffff" stroke-width="2" d="M1136,-151C1200.19,-151 1215.81,-140 1280,-140"/>
<path fill="none" stroke="#000000" stroke-width="2" d="M1136,-153C1201.34,-152.64 1216.96,-141.64 1280,-142"/>
</g>
<!-- Cable_Main&#45;&#45;F8 -->
<g id="edge16" class="edge">
<title>Cable_Main:e&#45;&#45;F8:w</title>
<path fill="none" stroke="#000000" stroke-width="2" d="M1136,-124C1199.79,-125.28 1212.47,-92.28 1280,-91"/>
<path fill="none" stroke="#ffffff" stroke-width="2" d="M1136,-126C1201.66,-126 1214.34,-93 1280,-93"/>
<path fill="none" stroke="#000000" stroke-width="2" d="M1136,-128C1203.53,-126.72 1216.21,-93.72 1280,-95"/>
</g>
<!-- Cable_Stub_2&#45;&#45;CAN_Brake -->
<g id="edge18" class="edge">
<title>Cable_Stub_2:e&#45;&#45;CAN_Brake:w</title>
<path fill="none" stroke="#000000" stroke-width="2" d="M1723.5,-303C1793.72,-303.01 1811.32,-301.01 1882,-301"/>
<path fill="none" stroke="#000000" stroke-width="2" d="M1723.5,-305C1793.95,-305 1811.55,-303 1882,-303"/>
<path fill="none" stroke="#000000" stroke-width="2" d="M1723.5,-307C1794.18,-306.99 1811.78,-304.99 1882,-305"/>
</g>
<!-- Cable_Stub_2&#45;&#45;CAN_Brake -->
<g id="edge20" class="edge">
<title>Cable_Stub_2:e&#45;&#45;CAN_Brake:w</title>
<path fill="none" stroke="#000000" stroke-width="2" d="M1723.5,-278C1793.83,-278 1811.44,-277 1882,-277"/>
<path fill="none" stroke="#ffffff" stroke-width="2" d="M1723.5,-280C1793.95,-280 1811.55,-279 1882,-279"/>
<path fill="none" stroke="#000000" stroke-width="2" d="M1723.5,-282C1794.06,-282 1811.67,-281 1882,-281"/>
</g>
<!-- Cable_Stub_2&#45;&#45;CAN_Brake -->
<g id="edge22" class="edge">
<title>Cable_Stub_2:e&#45;&#45;CAN_Brake:w</title>
<path fill="none" stroke="#000000" stroke-width="2" d="M1723.5,-253C1794.06,-253 1811.67,-254 1882,-254"/>
<path fill="none" stroke="#0066ff" stroke-width="2" d="M1723.5,-255C1793.95,-255 1811.55,-256 1882,-256"/>
<path fill="none" stroke="#000000" stroke-width="2" d="M1723.5,-257C1793.83,-257 1811.44,-258 1882,-258"/>
</g>
<!-- Cable_Stub_2&#45;&#45;CAN_Brake -->
<g id="edge24" class="edge">
<title>Cable_Stub_2:e&#45;&#45;CAN_Brake:w</title>
<path fill="none" stroke="#000000" stroke-width="2" d="M1723.5,-228C1794.29,-228.03 1811.88,-231.03 1882,-231"/>
<path fill="none" stroke="#ff0000" stroke-width="2" d="M1723.5,-230C1793.96,-230 1811.54,-233 1882,-233"/>
<path fill="none" stroke="#000000" stroke-width="2" d="M1723.5,-232C1793.62,-231.97 1811.21,-234.97 1882,-235"/>
</g>
<!-- Cable_Stub_3&#45;&#45;CAN_INS/GNSS -->
<g id="edge26" class="edge">
<title>Cable_Stub_3:e&#45;&#45;CAN_INS/GNSS:w</title>
<path fill="none" stroke="#000000" stroke-width="2" d="M1738,-95C1801.76,-95.02 1817.75,-93.02 1882,-93"/>
<path fill="none" stroke="#000000" stroke-width="2" d="M1738,-97C1802.01,-97 1817.99,-95 1882,-95"/>
<path fill="none" stroke="#000000" stroke-width="2" d="M1738,-99C1802.25,-98.98 1818.24,-96.98 1882,-97"/>
</g>
<!-- Cable_Stub_3&#45;&#45;CAN_INS/GNSS -->
<g id="edge28" class="edge">
<title>Cable_Stub_3:e&#45;&#45;CAN_INS/GNSS:w</title>
<path fill="none" stroke="#000000" stroke-width="2" d="M1738,-70C1801.88,-70 1817.87,-69 1882,-69"/>
<path fill="none" stroke="#ffffff" stroke-width="2" d="M1738,-72C1802,-72 1818,-71 1882,-71"/>
<path fill="none" stroke="#000000" stroke-width="2" d="M1738,-74C1802.13,-74 1818.12,-73 1882,-73"/>
</g>
<!-- Cable_Stub_3&#45;&#45;CAN_INS/GNSS -->
<g id="edge30" class="edge">
<title>Cable_Stub_3:e&#45;&#45;CAN_INS/GNSS:w</title>
<path fill="none" stroke="#000000" stroke-width="2" d="M1738,-45C1802.13,-45 1818.12,-46 1882,-46"/>
<path fill="none" stroke="#0066ff" stroke-width="2" d="M1738,-47C1802,-47 1818,-48 1882,-48"/>
<path fill="none" stroke="#000000" stroke-width="2" d="M1738,-49C1801.88,-49 1817.87,-50 1882,-50"/>
</g>
<!-- Cable_Stub_3&#45;&#45;CAN_INS/GNSS -->
<g id="edge32" class="edge">
<title>Cable_Stub_3:e&#45;&#45;CAN_INS/GNSS:w</title>
<path fill="none" stroke="#000000" stroke-width="2" d="M1738,-20C1802.38,-20.03 1818.36,-23.03 1882,-23"/>
<path fill="none" stroke="#ff0000" stroke-width="2" d="M1738,-22C1802.01,-22 1817.99,-25 1882,-25"/>
<path fill="none" stroke="#000000" stroke-width="2" d="M1738,-24C1801.64,-23.97 1817.62,-26.97 1882,-27"/>
</g>
</g>
</svg>
