<?xml version="1.0" encoding="UTF-8" standalone="no"?>
<!DOCTYPE svg PUBLIC "-//W3C//DTD SVG 1.1//EN"
 "http://www.w3.org/Graphics/SVG/1.1/DTD/svg11.dtd">
<!-- Generated by graphviz version 2.44.1 (20200629.0800)
 -->
<!-- Pages: 1 -->
<svg width="2654pt" height="401pt"
 viewBox="0.00 0.00 2654.00 401.00" xmlns="http://www.w3.org/2000/svg" xmlns:xlink="http://www.w3.org/1999/xlink">
<g id="graph0" class="graph" transform="scale(1 1) rotate(0) translate(4 397)">
<polygon fill="#ffffff" stroke="transparent" points="-4,4 -4,-397 2650,-397 2650,4 -4,4"/>
<!-- CAN1 -->
<g id="node1" class="node">
<title>CAN1</title>
<polygon fill="#ffffff" stroke="black" points="219,-256 0,-256 0,-118 219,-118 219,-256"/>
<polygon fill="none" stroke="black" points="0.5,-233 0.5,-256 219.5,-256 219.5,-233 0.5,-233"/>
<text text-anchor="start" x="90.5" y="-240.8" font-family="arial" font-size="14.00">CAN1</text>
<polygon fill="none" stroke="black" points="0.5,-210 0.5,-233 90.5,-233 90.5,-210 0.5,-210"/>
<text text-anchor="start" x="4.5" y="-217.8" font-family="arial" font-size="14.00">Hirose DF13</text>
<polygon fill="none" stroke="black" points="90.5,-210 90.5,-233 142.5,-233 142.5,-210 90.5,-210"/>
<text text-anchor="start" x="94.5" y="-217.8" font-family="arial" font-size="14.00">female</text>
<polygon fill="none" stroke="black" points="142.5,-210 142.5,-233 182.5,-233 182.5,-210 142.5,-210"/>
<text text-anchor="start" x="146.5" y="-217.8" font-family="arial" font-size="14.00">4&#45;pin</text>
<polygon fill="none" stroke="black" points="182.5,-210 182.5,-233 211.5,-233 211.5,-210 182.5,-210"/>
<text text-anchor="start" x="186.5" y="-217.8" font-family="arial" font-size="14.00">GY</text>
<polygon fill="#999999" stroke="transparent" points="211.5,-210 211.5,-233 219.5,-233 219.5,-210 211.5,-210"/>
<polygon fill="none" stroke="black" points="211.5,-210 211.5,-233 219.5,-233 219.5,-210 211.5,-210"/>
<polygon fill="none" stroke="black" points="0.5,-187 0.5,-210 130.5,-210 130.5,-187 0.5,-187"/>
<text text-anchor="start" x="49.5" y="-194.8" font-family="arial" font-size="14.00">GND</text>
<polygon fill="none" stroke="black" points="130.5,-187 130.5,-210 219.5,-210 219.5,-187 130.5,-187"/>
<text text-anchor="start" x="170.5" y="-194.8" font-family="arial" font-size="14.00">1</text>
<polygon fill="none" stroke="black" points="0.5,-164 0.5,-187 130.5,-187 130.5,-164 0.5,-164"/>
<text text-anchor="start" x="42" y="-171.8" font-family="arial" font-size="14.00">CAN_L</text>
<polygon fill="none" stroke="black" points="130.5,-164 130.5,-187 219.5,-187 219.5,-164 130.5,-164"/>
<text text-anchor="start" x="170.5" y="-171.8" font-family="arial" font-size="14.00">2</text>
<polygon fill="none" stroke="black" points="0.5,-141 0.5,-164 130.5,-164 130.5,-141 0.5,-141"/>
<text text-anchor="start" x="41" y="-148.8" font-family="arial" font-size="14.00">CAN_H</text>
<polygon fill="none" stroke="black" points="130.5,-141 130.5,-164 219.5,-164 219.5,-141 130.5,-141"/>
<text text-anchor="start" x="170.5" y="-148.8" font-family="arial" font-size="14.00">3</text>
<polygon fill="none" stroke="black" points="0.5,-118 0.5,-141 130.5,-141 130.5,-118 0.5,-118"/>
<text text-anchor="start" x="53" y="-125.8" font-family="arial" font-size="14.00">Vcc</text>
<polygon fill="none" stroke="black" points="130.5,-118 130.5,-141 219.5,-141 219.5,-118 130.5,-118"/>
<text text-anchor="start" x="170.5" y="-125.8" font-family="arial" font-size="14.00">4</text>
</g>
<!-- Cable_Stub_1 -->
<g id="node16" class="node">
<title>Cable_Stub_1</title>
<polygon fill="#ffffff" stroke="black" stroke-dasharray="5,2" points="536,-288 363,-288 363,-104 536,-104 536,-288"/>
<polygon fill="none" stroke="black" points="363.5,-265 363.5,-288 536.5,-288 536.5,-265 363.5,-265"/>
<text text-anchor="start" x="404" y="-272.8" font-family="arial" font-size="14.00">Cable_Stub_1</text>
<polygon fill="none" stroke="black" points="363.5,-242 363.5,-265 403.5,-265 403.5,-242 363.5,-242"/>
<text text-anchor="start" x="368" y="-249.8" font-family="arial" font-size="14.00">CAN</text>
<polygon fill="none" stroke="black" points="403.5,-242 403.5,-265 427.5,-265 427.5,-242 403.5,-242"/>
<text text-anchor="start" x="407.5" y="-249.8" font-family="arial" font-size="14.00">4x</text>
<polygon fill="none" stroke="black" points="427.5,-242 427.5,-265 491.5,-265 491.5,-242 427.5,-242"/>
<text text-anchor="start" x="431.5" y="-249.8" font-family="arial" font-size="14.00">AWG 28</text>
<polygon fill="none" stroke="black" points="491.5,-242 491.5,-265 536.5,-265 536.5,-242 491.5,-242"/>
<text text-anchor="start" x="495.5" y="-249.8" font-family="arial" font-size="14.00">0.2 m</text>
<text text-anchor="start" x="415" y="-228.8" font-family="arial" font-size="14.00"> </text>
<text text-anchor="start" x="374" y="-209.8" font-family="arial" font-size="14.00">CAN1:1:GND</text>
<text text-anchor="start" x="474.5" y="-209.8" font-family="arial" font-size="14.00"> &#160;&#160;&#160;&#160;BK &#160;&#160;&#160;</text>
<polygon fill="#000000" stroke="transparent" points="363.5,-202 363.5,-204 536.5,-204 536.5,-202 363.5,-202"/>
<polygon fill="#000000" stroke="transparent" points="363.5,-200 363.5,-202 536.5,-202 536.5,-200 363.5,-200"/>
<polygon fill="#000000" stroke="transparent" points="363.5,-198 363.5,-200 536.5,-200 536.5,-198 363.5,-198"/>
<text text-anchor="start" x="366.5" y="-184.8" font-family="arial" font-size="14.00">CAN1:2:CAN_L</text>
<text text-anchor="start" x="472.5" y="-184.8" font-family="arial" font-size="14.00"> &#160;&#160;&#160;&#160;WH &#160;&#160;&#160;</text>
<polygon fill="#000000" stroke="transparent" points="363.5,-177 363.5,-179 536.5,-179 536.5,-177 363.5,-177"/>
<polygon fill="#ffffff" stroke="transparent" points="363.5,-175 363.5,-177 536.5,-177 536.5,-175 363.5,-175"/>
<polygon fill="#000000" stroke="transparent" points="363.5,-173 363.5,-175 536.5,-175 536.5,-173 363.5,-173"/>
<text text-anchor="start" x="365.5" y="-159.8" font-family="arial" font-size="14.00">CAN1:3:CAN_H</text>
<text text-anchor="start" x="474.5" y="-159.8" font-family="arial" font-size="14.00"> &#160;&#160;&#160;&#160;BU &#160;&#160;&#160;</text>
<polygon fill="#000000" stroke="transparent" points="363.5,-152 363.5,-154 536.5,-154 536.5,-152 363.5,-152"/>
<polygon fill="#0066ff" stroke="transparent" points="363.5,-150 363.5,-152 536.5,-152 536.5,-150 363.5,-150"/>
<polygon fill="#000000" stroke="transparent" points="363.5,-148 363.5,-150 536.5,-150 536.5,-148 363.5,-148"/>
<text text-anchor="start" x="377.5" y="-134.8" font-family="arial" font-size="14.00">CAN1:4:Vcc</text>
<text text-anchor="start" x="474" y="-134.8" font-family="arial" font-size="14.00"> &#160;&#160;&#160;&#160;RD &#160;&#160;&#160;</text>
<polygon fill="#000000" stroke="transparent" points="363.5,-127 363.5,-129 536.5,-129 536.5,-127 363.5,-127"/>
<polygon fill="#ff0000" stroke="transparent" points="363.5,-125 363.5,-127 536.5,-127 536.5,-125 363.5,-125"/>
<polygon fill="#000000" stroke="transparent" points="363.5,-123 363.5,-125 536.5,-125 536.5,-123 363.5,-123"/>
<text text-anchor="start" x="415" y="-109.8" font-family="arial" font-size="14.00"> </text>
</g>
<!-- CAN1&#45;&#45;Cable_Stub_1 -->
<g id="edge1" class="edge">
<title>CAN1:e&#45;&#45;Cable_Stub_1:w</title>
<path fill="none" stroke="#000000" stroke-width="2" d="M219,-197C283.25,-197.02 299.24,-199.02 363,-199"/>
<path fill="none" stroke="#000000" stroke-width="2" d="M219,-199C283.01,-199 298.99,-201 363,-201"/>
<path fill="none" stroke="#000000" stroke-width="2" d="M219,-201C282.76,-200.98 298.75,-202.98 363,-203"/>
</g>
<!-- CAN1&#45;&#45;Cable_Stub_1 -->
<g id="edge3" class="edge">
<title>CAN1:e&#45;&#45;Cable_Stub_1:w</title>
<path fill="none" stroke="#000000" stroke-width="2" d="M219,-173C283.13,-173 299.12,-174 363,-174"/>
<path fill="none" stroke="#ffffff" stroke-width="2" d="M219,-175C283,-175 299,-176 363,-176"/>
<path fill="none" stroke="#000000" stroke-width="2" d="M219,-177C282.88,-177 298.87,-178 363,-178"/>
</g>
<!-- CAN1&#45;&#45;Cable_Stub_1 -->
<g id="edge5" class="edge">
<title>CAN1:e&#45;&#45;Cable_Stub_1:w</title>
<path fill="none" stroke="#000000" stroke-width="2" d="M219,-150C282.88,-150 298.87,-149 363,-149"/>
<path fill="none" stroke="#0066ff" stroke-width="2" d="M219,-152C283,-152 299,-151 363,-151"/>
<path fill="none" stroke="#000000" stroke-width="2" d="M219,-154C283.13,-154 299.12,-153 363,-153"/>
</g>
<!-- CAN1&#45;&#45;Cable_Stub_1 -->
<g id="edge7" class="edge">
<title>CAN1:e&#45;&#45;Cable_Stub_1:w</title>
<path fill="none" stroke="#000000" stroke-width="2" d="M219,-127C282.64,-127.03 298.62,-124.03 363,-124"/>
<path fill="none" stroke="#ff0000" stroke-width="2" d="M219,-129C283.01,-129 298.99,-126 363,-126"/>
<path fill="none" stroke="#000000" stroke-width="2" d="M219,-131C283.38,-130.97 299.36,-127.97 363,-128"/>
</g>
<!-- F1 -->
<g id="node2" class="node">
<title>F1</title>
<polygon fill="#ffffff" stroke="black" points="749,-245.5 680,-245.5 680,-222.5 749,-222.5 749,-245.5"/>
<polygon fill="none" stroke="black" points="680.5,-222 680.5,-245 749.5,-245 749.5,-222 680.5,-222"/>
<text text-anchor="start" x="684.5" y="-229.8" font-family="arial" font-size="14.00">SPC&#45;01T</text>
</g>
<!-- Cable_Main_1 -->
<g id="node17" class="node">
<title>Cable_Main_1</title>
<polygon fill="#ffffff" stroke="black" points="1065,-288 893,-288 893,-104 1065,-104 1065,-288"/>
<polygon fill="none" stroke="black" points="893,-265 893,-288 1065,-288 1065,-265 893,-265"/>
<text text-anchor="start" x="933" y="-272.8" font-family="arial" font-size="14.00">Cable_Main_1</text>
<polygon fill="none" stroke="black" points="893,-242 893,-265 932,-265 932,-242 893,-242"/>
<text text-anchor="start" x="897" y="-249.8" font-family="arial" font-size="14.00">CAN</text>
<polygon fill="none" stroke="black" points="932,-242 932,-265 956,-265 956,-242 932,-242"/>
<text text-anchor="start" x="936" y="-249.8" font-family="arial" font-size="14.00">4x</text>
<polygon fill="none" stroke="black" points="956,-242 956,-265 1020,-265 1020,-242 956,-242"/>
<text text-anchor="start" x="960" y="-249.8" font-family="arial" font-size="14.00">AWG 28</text>
<polygon fill="none" stroke="black" points="1020,-242 1020,-265 1065,-265 1065,-242 1020,-242"/>
<text text-anchor="start" x="1024" y="-249.8" font-family="arial" font-size="14.00">0.2 m</text>
<text text-anchor="start" x="914" y="-228.8" font-family="arial" font-size="14.00"> </text>
<text text-anchor="start" x="960" y="-209.8" font-family="arial" font-size="14.00"> &#160;&#160;&#160;&#160;1 &#160;&#160;&#160;</text>
<polygon fill="#000000" stroke="transparent" points="893,-202 893,-204 1065,-204 1065,-202 893,-202"/>
<polygon fill="#ffffff" stroke="transparent" points="893,-200 893,-202 1065,-202 1065,-200 893,-200"/>
<polygon fill="#000000" stroke="transparent" points="893,-198 893,-200 1065,-200 1065,-198 893,-198"/>
<text text-anchor="start" x="960" y="-184.8" font-family="arial" font-size="14.00"> &#160;&#160;&#160;&#160;2 &#160;&#160;&#160;</text>
<polygon fill="#000000" stroke="transparent" points="893,-177 893,-179 1065,-179 1065,-177 893,-177"/>
<polygon fill="#ffffff" stroke="transparent" points="893,-175 893,-177 1065,-177 1065,-175 893,-175"/>
<polygon fill="#000000" stroke="transparent" points="893,-173 893,-175 1065,-175 1065,-173 893,-173"/>
<text text-anchor="start" x="960" y="-159.8" font-family="arial" font-size="14.00"> &#160;&#160;&#160;&#160;3 &#160;&#160;&#160;</text>
<polygon fill="#000000" stroke="transparent" points="893,-152 893,-154 1065,-154 1065,-152 893,-152"/>
<polygon fill="#ffffff" stroke="transparent" points="893,-150 893,-152 1065,-152 1065,-150 893,-150"/>
<polygon fill="#000000" stroke="transparent" points="893,-148 893,-150 1065,-150 1065,-148 893,-148"/>
<text text-anchor="start" x="960" y="-134.8" font-family="arial" font-size="14.00"> &#160;&#160;&#160;&#160;4 &#160;&#160;&#160;</text>
<polygon fill="#000000" stroke="transparent" points="893,-127 893,-129 1065,-129 1065,-127 893,-127"/>
<polygon fill="#ffffff" stroke="transparent" points="893,-125 893,-127 1065,-127 1065,-125 893,-125"/>
<polygon fill="#000000" stroke="transparent" points="893,-123 893,-125 1065,-125 1065,-123 893,-123"/>
<text text-anchor="start" x="914" y="-109.8" font-family="arial" font-size="14.00"> </text>
</g>
<!-- F1&#45;&#45;Cable_Main_1 -->
<g id="edge9" class="edge">
<title>F1:e&#45;&#45;Cable_Main_1:w</title>
<path fill="none" stroke="#000000" stroke-width="2" d="M749,-232C812.79,-233.28 825.47,-200.28 893,-199"/>
<path fill="none" stroke="#ffffff" stroke-width="2" d="M749,-234C814.66,-234 827.34,-201 893,-201"/>
<path fill="none" stroke="#000000" stroke-width="2" d="M749,-236C816.53,-234.72 829.21,-201.72 893,-203"/>
</g>
<!-- F2 -->
<g id="node3" class="node">
<title>F2</title>
<polygon fill="#ffffff" stroke="black" points="749,-198.5 680,-198.5 680,-175.5 749,-175.5 749,-198.5"/>
<polygon fill="none" stroke="black" points="680.5,-175 680.5,-198 749.5,-198 749.5,-175 680.5,-175"/>
<text text-anchor="start" x="684.5" y="-182.8" font-family="arial" font-size="14.00">SPC&#45;01T</text>
</g>
<!-- F2&#45;&#45;Cable_Main_1 -->
<g id="edge11" class="edge">
<title>F2:e&#45;&#45;Cable_Main_1:w</title>
<path fill="none" stroke="#000000" stroke-width="2" d="M749,-185C812.04,-185.36 827.66,-174.36 893,-174"/>
<path fill="none" stroke="#ffffff" stroke-width="2" d="M749,-187C813.19,-187 828.81,-176 893,-176"/>
<path fill="none" stroke="#000000" stroke-width="2" d="M749,-189C814.34,-188.64 829.96,-177.64 893,-178"/>
</g>
<!-- F3 -->
<g id="node4" class="node">
<title>F3</title>
<polygon fill="#ffffff" stroke="black" points="749,-151.5 680,-151.5 680,-128.5 749,-128.5 749,-151.5"/>
<polygon fill="none" stroke="black" points="680.5,-128 680.5,-151 749.5,-151 749.5,-128 680.5,-128"/>
<text text-anchor="start" x="684.5" y="-135.8" font-family="arial" font-size="14.00">SPC&#45;01T</text>
</g>
<!-- F3&#45;&#45;Cable_Main_1 -->
<g id="edge13" class="edge">
<title>F3:e&#45;&#45;Cable_Main_1:w</title>
<path fill="none" stroke="#000000" stroke-width="2" d="M749,-138C814.34,-138.36 829.96,-149.36 893,-149"/>
<path fill="none" stroke="#ffffff" stroke-width="2" d="M749,-140C813.19,-140 828.81,-151 893,-151"/>
<path fill="none" stroke="#000000" stroke-width="2" d="M749,-142C812.04,-141.64 827.66,-152.64 893,-153"/>
</g>
<!-- F4 -->
<g id="node5" class="node">
<title>F4</title>
<polygon fill="#ffffff" stroke="black" points="749,-104.5 680,-104.5 680,-81.5 749,-81.5 749,-104.5"/>
<polygon fill="none" stroke="black" points="680.5,-81 680.5,-104 749.5,-104 749.5,-81 680.5,-81"/>
<text text-anchor="start" x="684.5" y="-88.8" font-family="arial" font-size="14.00">SPC&#45;01T</text>
</g>
<!-- F4&#45;&#45;Cable_Main_1 -->
<g id="edge15" class="edge">
<title>F4:e&#45;&#45;Cable_Main_1:w</title>
<path fill="none" stroke="#000000" stroke-width="2" d="M749,-91C816.53,-92.28 829.21,-125.28 893,-124"/>
<path fill="none" stroke="#ffffff" stroke-width="2" d="M749,-93C814.66,-93 827.34,-126 893,-126"/>
<path fill="none" stroke="#000000" stroke-width="2" d="M749,-95C812.79,-93.72 825.47,-126.72 893,-128"/>
</g>
<!-- F5 -->
<g id="node6" class="node">
<title>F5</title>
<polygon fill="#ffffff" stroke="black" points="1278,-245.5 1209,-245.5 1209,-222.5 1278,-222.5 1278,-245.5"/>
<polygon fill="none" stroke="black" points="1209.5,-222 1209.5,-245 1278.5,-245 1278.5,-222 1209.5,-222"/>
<text text-anchor="start" x="1213.5" y="-229.8" font-family="arial" font-size="14.00">SPC&#45;01T</text>
</g>
<!-- Cable_Main_2 -->
<g id="node18" class="node">
<title>Cable_Main_2</title>
<polygon fill="#ffffff" stroke="black" points="1596.5,-392 1424.5,-392 1424.5,-208 1596.5,-208 1596.5,-392"/>
<polygon fill="none" stroke="black" points="1424.5,-369 1424.5,-392 1596.5,-392 1596.5,-369 1424.5,-369"/>
<text text-anchor="start" x="1464.5" y="-376.8" font-family="arial" font-size="14.00">Cable_Main_2</text>
<polygon fill="none" stroke="black" points="1424.5,-346 1424.5,-369 1463.5,-369 1463.5,-346 1424.5,-346"/>
<text text-anchor="start" x="1428.5" y="-353.8" font-family="arial" font-size="14.00">CAN</text>
<polygon fill="none" stroke="black" points="1463.5,-346 1463.5,-369 1487.5,-369 1487.5,-346 1463.5,-346"/>
<text text-anchor="start" x="1467.5" y="-353.8" font-family="arial" font-size="14.00">4x</text>
<polygon fill="none" stroke="black" points="1487.5,-346 1487.5,-369 1551.5,-369 1551.5,-346 1487.5,-346"/>
<text text-anchor="start" x="1491.5" y="-353.8" font-family="arial" font-size="14.00">AWG 28</text>
<polygon fill="none" stroke="black" points="1551.5,-346 1551.5,-369 1596.5,-369 1596.5,-346 1551.5,-346"/>
<text text-anchor="start" x="1555.5" y="-353.8" font-family="arial" font-size="14.00">0.2 m</text>
<text text-anchor="start" x="1445.5" y="-332.8" font-family="arial" font-size="14.00"> </text>
<text text-anchor="start" x="1491.5" y="-313.8" font-family="arial" font-size="14.00"> &#160;&#160;&#160;&#160;1 &#160;&#160;&#160;</text>
<polygon fill="#000000" stroke="transparent" points="1424.5,-306 1424.5,-308 1596.5,-308 1596.5,-306 1424.5,-306"/>
<polygon fill="#ffffff" stroke="transparent" points="1424.5,-304 1424.5,-306 1596.5,-306 1596.5,-304 1424.5,-304"/>
<polygon fill="#000000" stroke="transparent" points="1424.5,-302 1424.5,-304 1596.5,-304 1596.5,-302 1424.5,-302"/>
<text text-anchor="start" x="1491.5" y="-288.8" font-family="arial" font-size="14.00"> &#160;&#160;&#160;&#160;2 &#160;&#160;&#160;</text>
<polygon fill="#000000" stroke="transparent" points="1424.5,-281 1424.5,-283 1596.5,-283 1596.5,-281 1424.5,-281"/>
<polygon fill="#ffffff" stroke="transparent" points="1424.5,-279 1424.5,-281 1596.5,-281 1596.5,-279 1424.5,-279"/>
<polygon fill="#000000" stroke="transparent" points="1424.5,-277 1424.5,-279 1596.5,-279 1596.5,-277 1424.5,-277"/>
<text text-anchor="start" x="1491.5" y="-263.8" font-family="arial" font-size="14.00"> &#160;&#160;&#160;&#160;3 &#160;&#160;&#160;</text>
<polygon fill="#000000" stroke="transparent" points="1424.5,-256 1424.5,-258 1596.5,-258 1596.5,-256 1424.5,-256"/>
<polygon fill="#ffffff" stroke="transparent" points="1424.5,-254 1424.5,-256 1596.5,-256 1596.5,-254 1424.5,-254"/>
<polygon fill="#000000" stroke="transparent" points="1424.5,-252 1424.5,-254 1596.5,-254 1596.5,-252 1424.5,-252"/>
<text text-anchor="start" x="1491.5" y="-238.8" font-family="arial" font-size="14.00"> &#160;&#160;&#160;&#160;4 &#160;&#160;&#160;</text>
<polygon fill="#000000" stroke="transparent" points="1424.5,-231 1424.5,-233 1596.5,-233 1596.5,-231 1424.5,-231"/>
<polygon fill="#ffffff" stroke="transparent" points="1424.5,-229 1424.5,-231 1596.5,-231 1596.5,-229 1424.5,-229"/>
<polygon fill="#000000" stroke="transparent" points="1424.5,-227 1424.5,-229 1596.5,-229 1596.5,-227 1424.5,-227"/>
<text text-anchor="start" x="1445.5" y="-213.8" font-family="arial" font-size="14.00"> </text>
</g>
<!-- F5&#45;&#45;Cable_Main_2 -->
<g id="edge17" class="edge">
<title>F5:e&#45;&#45;Cable_Main_2:w</title>
<path fill="none" stroke="#000000" stroke-width="2" d="M1278,-232C1351.95,-233.96 1353.54,-304.96 1423.5,-303"/>
<path fill="none" stroke="#ffffff" stroke-width="2" d="M1278,-234C1349.96,-234 1351.54,-305 1423.5,-305"/>
<path fill="none" stroke="#000000" stroke-width="2" d="M1278,-236C1347.96,-234.04 1349.55,-305.04 1423.5,-307"/>
</g>
<!-- Cable_Stub_3 -->
<g id="node20" class="node">
<title>Cable_Stub_3</title>
<polygon fill="#ffffff" stroke="black" stroke-dasharray="5,2" points="1599,-184 1422,-184 1422,0 1599,0 1599,-184"/>
<polygon fill="none" stroke="black" points="1422.5,-161 1422.5,-184 1599.5,-184 1599.5,-161 1422.5,-161"/>
<text text-anchor="start" x="1465" y="-168.8" font-family="arial" font-size="14.00">Cable_Stub_3</text>
<polygon fill="none" stroke="black" points="1422.5,-138 1422.5,-161 1463.5,-161 1463.5,-138 1422.5,-138"/>
<text text-anchor="start" x="1427.5" y="-145.8" font-family="arial" font-size="14.00">CAN</text>
<polygon fill="none" stroke="black" points="1463.5,-138 1463.5,-161 1488.5,-161 1488.5,-138 1463.5,-138"/>
<text text-anchor="start" x="1468" y="-145.8" font-family="arial" font-size="14.00">4x</text>
<polygon fill="none" stroke="black" points="1488.5,-138 1488.5,-161 1553.5,-161 1553.5,-138 1488.5,-138"/>
<text text-anchor="start" x="1493" y="-145.8" font-family="arial" font-size="14.00">AWG 28</text>
<polygon fill="none" stroke="black" points="1553.5,-138 1553.5,-161 1599.5,-161 1599.5,-138 1553.5,-138"/>
<text text-anchor="start" x="1558" y="-145.8" font-family="arial" font-size="14.00">0.2 m</text>
<text text-anchor="start" x="1424.5" y="-124.8" font-family="arial" font-size="14.00"> </text>
<text text-anchor="start" x="1434.5" y="-105.8" font-family="arial" font-size="14.00"> &#160;&#160;&#160;&#160;BK &#160;&#160;&#160;</text>
<text text-anchor="start" x="1503" y="-105.8" font-family="arial" font-size="14.00">CAN2:1:GND</text>
<polygon fill="#000000" stroke="transparent" points="1422.5,-98 1422.5,-100 1599.5,-100 1599.5,-98 1422.5,-98"/>
<polygon fill="#000000" stroke="transparent" points="1422.5,-96 1422.5,-98 1599.5,-98 1599.5,-96 1422.5,-96"/>
<polygon fill="#000000" stroke="transparent" points="1422.5,-94 1422.5,-96 1599.5,-96 1599.5,-94 1422.5,-94"/>
<text text-anchor="start" x="1432.5" y="-80.8" font-family="arial" font-size="14.00"> &#160;&#160;&#160;&#160;WH &#160;&#160;&#160;</text>
<text text-anchor="start" x="1495.5" y="-80.8" font-family="arial" font-size="14.00">CAN2:2:CAN_L</text>
<polygon fill="#000000" stroke="transparent" points="1422.5,-73 1422.5,-75 1599.5,-75 1599.5,-73 1422.5,-73"/>
<polygon fill="#ffffff" stroke="transparent" points="1422.5,-71 1422.5,-73 1599.5,-73 1599.5,-71 1422.5,-71"/>
<polygon fill="#000000" stroke="transparent" points="1422.5,-69 1422.5,-71 1599.5,-71 1599.5,-69 1422.5,-69"/>
<text text-anchor="start" x="1434.5" y="-55.8" font-family="arial" font-size="14.00"> &#160;&#160;&#160;&#160;BU &#160;&#160;&#160;</text>
<text text-anchor="start" x="1494.5" y="-55.8" font-family="arial" font-size="14.00">CAN2:3:CAN_H</text>
<polygon fill="#000000" stroke="transparent" points="1422.5,-48 1422.5,-50 1599.5,-50 1599.5,-48 1422.5,-48"/>
<polygon fill="#0066ff" stroke="transparent" points="1422.5,-46 1422.5,-48 1599.5,-48 1599.5,-46 1422.5,-46"/>
<polygon fill="#000000" stroke="transparent" points="1422.5,-44 1422.5,-46 1599.5,-46 1599.5,-44 1422.5,-44"/>
<text text-anchor="start" x="1434" y="-30.8" font-family="arial" font-size="14.00"> &#160;&#160;&#160;&#160;RD &#160;&#160;&#160;</text>
<text text-anchor="start" x="1506.5" y="-30.8" font-family="arial" font-size="14.00">CAN2:4:Vcc</text>
<polygon fill="#000000" stroke="transparent" points="1422.5,-23 1422.5,-25 1599.5,-25 1599.5,-23 1422.5,-23"/>
<polygon fill="#ff0000" stroke="transparent" points="1422.5,-21 1422.5,-23 1599.5,-23 1599.5,-21 1422.5,-21"/>
<polygon fill="#000000" stroke="transparent" points="1422.5,-19 1422.5,-21 1599.5,-21 1599.5,-19 1422.5,-19"/>
<text text-anchor="start" x="1424.5" y="-5.8" font-family="arial" font-size="14.00"> </text>
</g>
<!-- F5&#45;&#45;Cable_Stub_3 -->
<g id="edge33" class="edge">
<title>F5:e&#45;&#45;Cable_Stub_3:w</title>
<path fill="none" stroke="#000000" stroke-width="2" d="M1278,-232C1364.39,-234.46 1331.72,-97.46 1422,-95"/>
<path fill="none" stroke="#000000" stroke-width="2" d="M1278,-234C1366.34,-234 1333.66,-97 1422,-97"/>
<path fill="none" stroke="#000000" stroke-width="2" d="M1278,-236C1368.28,-233.54 1335.61,-96.54 1422,-99"/>
</g>
<!-- F6 -->
<g id="node7" class="node">
<title>F6</title>
<polygon fill="#ffffff" stroke="black" points="1278,-198.5 1209,-198.5 1209,-175.5 1278,-175.5 1278,-198.5"/>
<polygon fill="none" stroke="black" points="1209.5,-175 1209.5,-198 1278.5,-198 1278.5,-175 1209.5,-175"/>
<text text-anchor="start" x="1213.5" y="-182.8" font-family="arial" font-size="14.00">SPC&#45;01T</text>
</g>
<!-- F6&#45;&#45;Cable_Main_2 -->
<g id="edge19" class="edge">
<title>F6:e&#45;&#45;Cable_Main_2:w</title>
<path fill="none" stroke="#000000" stroke-width="2" d="M1278,-185C1356.74,-187.17 1348.74,-280.17 1423.5,-278"/>
<path fill="none" stroke="#ffffff" stroke-width="2" d="M1278,-187C1354.75,-187 1346.75,-280 1423.5,-280"/>
<path fill="none" stroke="#000000" stroke-width="2" d="M1278,-189C1352.76,-186.83 1344.76,-279.83 1423.5,-282"/>
</g>
<!-- F6&#45;&#45;Cable_Stub_3 -->
<g id="edge35" class="edge">
<title>F6:e&#45;&#45;Cable_Stub_3:w</title>
<path fill="none" stroke="#000000" stroke-width="2" d="M1278,-185C1357.93,-187.34 1338.12,-72.34 1422,-70"/>
<path fill="none" stroke="#ffffff" stroke-width="2" d="M1278,-187C1359.9,-187 1340.1,-72 1422,-72"/>
<path fill="none" stroke="#000000" stroke-width="2" d="M1278,-189C1361.88,-186.66 1342.07,-71.66 1422,-74"/>
</g>
<!-- F7 -->
<g id="node8" class="node">
<title>F7</title>
<polygon fill="#ffffff" stroke="black" points="1278,-151.5 1209,-151.5 1209,-128.5 1278,-128.5 1278,-151.5"/>
<polygon fill="none" stroke="black" points="1209.5,-128 1209.5,-151 1278.5,-151 1278.5,-128 1209.5,-128"/>
<text text-anchor="start" x="1213.5" y="-135.8" font-family="arial" font-size="14.00">SPC&#45;01T</text>
</g>
<!-- F7&#45;&#45;Cable_Main_2 -->
<g id="edge21" class="edge">
<title>F7:e&#45;&#45;Cable_Main_2:w</title>
<path fill="none" stroke="#000000" stroke-width="2" d="M1278,-138C1362.4,-140.33 1343.05,-255.33 1423.5,-253"/>
<path fill="none" stroke="#ffffff" stroke-width="2" d="M1278,-140C1360.43,-140 1341.07,-255 1423.5,-255"/>
<path fill="none" stroke="#000000" stroke-width="2" d="M1278,-142C1358.45,-139.67 1339.1,-254.67 1423.5,-257"/>
</g>
<!-- F7&#45;&#45;Cable_Stub_3 -->
<g id="edge37" class="edge">
<title>F7:e&#45;&#45;Cable_Stub_3:w</title>
<path fill="none" stroke="#000000" stroke-width="2" d="M1278,-138C1352.19,-140.18 1343.82,-47.18 1422,-45"/>
<path fill="none" stroke="#0066ff" stroke-width="2" d="M1278,-140C1354.19,-140 1345.81,-47 1422,-47"/>
<path fill="none" stroke="#000000" stroke-width="2" d="M1278,-142C1356.18,-139.82 1347.81,-46.82 1422,-49"/>
</g>
<!-- F8 -->
<g id="node9" class="node">
<title>F8</title>
<polygon fill="#ffffff" stroke="black" points="1278,-104.5 1209,-104.5 1209,-81.5 1278,-81.5 1278,-104.5"/>
<polygon fill="none" stroke="black" points="1209.5,-81 1209.5,-104 1278.5,-104 1278.5,-81 1209.5,-81"/>
<text text-anchor="start" x="1213.5" y="-88.8" font-family="arial" font-size="14.00">SPC&#45;01T</text>
</g>
<!-- F8&#45;&#45;Cable_Main_2 -->
<g id="edge23" class="edge">
<title>F8:e&#45;&#45;Cable_Main_2:w</title>
<path fill="none" stroke="#000000" stroke-width="2" d="M1278,-91C1368.77,-93.46 1336.63,-230.46 1423.5,-228"/>
<path fill="none" stroke="#ffffff" stroke-width="2" d="M1278,-93C1366.82,-93 1334.68,-230 1423.5,-230"/>
<path fill="none" stroke="#000000" stroke-width="2" d="M1278,-95C1364.87,-92.54 1332.73,-229.54 1423.5,-232"/>
</g>
<!-- F8&#45;&#45;Cable_Stub_3 -->
<g id="edge39" class="edge">
<title>F8:e&#45;&#45;Cable_Stub_3:w</title>
<path fill="none" stroke="#000000" stroke-width="2" d="M1278,-91C1347.36,-92.96 1348.64,-21.96 1422,-20"/>
<path fill="none" stroke="#ff0000" stroke-width="2" d="M1278,-93C1349.36,-93 1350.64,-22 1422,-22"/>
<path fill="none" stroke="#000000" stroke-width="2" d="M1278,-95C1351.36,-93.04 1352.64,-22.04 1422,-24"/>
</g>
<!-- F9 -->
<g id="node10" class="node">
<title>F9</title>
<polygon fill="#ffffff" stroke="black" points="1887,-350.5 1818,-350.5 1818,-327.5 1887,-327.5 1887,-350.5"/>
<polygon fill="none" stroke="black" points="1818.5,-327 1818.5,-350 1887.5,-350 1887.5,-327 1818.5,-327"/>
<text text-anchor="start" x="1822.5" y="-334.8" font-family="arial" font-size="14.00">SPC&#45;01T</text>
</g>
<!-- Cable_Stub_2 -->
<g id="node19" class="node">
<title>Cable_Stub_2</title>
<polygon fill="#ffffff" stroke="black" stroke-dasharray="5,2" points="2283,-393 2106,-393 2106,-209 2283,-209 2283,-393"/>
<polygon fill="none" stroke="black" points="2106.5,-370 2106.5,-393 2283.5,-393 2283.5,-370 2106.5,-370"/>
<text text-anchor="start" x="2149" y="-377.8" font-family="arial" font-size="14.00">Cable_Stub_2</text>
<polygon fill="none" stroke="black" points="2106.5,-347 2106.5,-370 2147.5,-370 2147.5,-347 2106.5,-347"/>
<text text-anchor="start" x="2111.5" y="-354.8" font-family="arial" font-size="14.00">CAN</text>
<polygon fill="none" stroke="black" points="2147.5,-347 2147.5,-370 2172.5,-370 2172.5,-347 2147.5,-347"/>
<text text-anchor="start" x="2152" y="-354.8" font-family="arial" font-size="14.00">4x</text>
<polygon fill="none" stroke="black" points="2172.5,-347 2172.5,-370 2237.5,-370 2237.5,-347 2172.5,-347"/>
<text text-anchor="start" x="2177" y="-354.8" font-family="arial" font-size="14.00">AWG 28</text>
<polygon fill="none" stroke="black" points="2237.5,-347 2237.5,-370 2283.5,-370 2283.5,-347 2237.5,-347"/>
<text text-anchor="start" x="2242" y="-354.8" font-family="arial" font-size="14.00">0.2 m</text>
<text text-anchor="start" x="2108.5" y="-333.8" font-family="arial" font-size="14.00"> </text>
<text text-anchor="start" x="2118.5" y="-314.8" font-family="arial" font-size="14.00"> &#160;&#160;&#160;&#160;BK &#160;&#160;&#160;</text>
<text text-anchor="start" x="2187" y="-314.8" font-family="arial" font-size="14.00">CAN3:1:GND</text>
<polygon fill="#000000" stroke="transparent" points="2106.5,-307 2106.5,-309 2283.5,-309 2283.5,-307 2106.5,-307"/>
<polygon fill="#000000" stroke="transparent" points="2106.5,-305 2106.5,-307 2283.5,-307 2283.5,-305 2106.5,-305"/>
<polygon fill="#000000" stroke="transparent" points="2106.5,-303 2106.5,-305 2283.5,-305 2283.5,-303 2106.5,-303"/>
<text text-anchor="start" x="2116.5" y="-289.8" font-family="arial" font-size="14.00"> &#160;&#160;&#160;&#160;WH &#160;&#160;&#160;</text>
<text text-anchor="start" x="2179.5" y="-289.8" font-family="arial" font-size="14.00">CAN3:2:CAN_L</text>
<polygon fill="#000000" stroke="transparent" points="2106.5,-282 2106.5,-284 2283.5,-284 2283.5,-282 2106.5,-282"/>
<polygon fill="#ffffff" stroke="transparent" points="2106.5,-280 2106.5,-282 2283.5,-282 2283.5,-280 2106.5,-280"/>
<polygon fill="#000000" stroke="transparent" points="2106.5,-278 2106.5,-280 2283.5,-280 2283.5,-278 2106.5,-278"/>
<text text-anchor="start" x="2118.5" y="-264.8" font-family="arial" font-size="14.00"> &#160;&#160;&#160;&#160;BU &#160;&#160;&#160;</text>
<text text-anchor="start" x="2178.5" y="-264.8" font-family="arial" font-size="14.00">CAN3:3:CAN_H</text>
<polygon fill="#000000" stroke="transparent" points="2106.5,-257 2106.5,-259 2283.5,-259 2283.5,-257 2106.5,-257"/>
<polygon fill="#0066ff" stroke="transparent" points="2106.5,-255 2106.5,-257 2283.5,-257 2283.5,-255 2106.5,-255"/>
<polygon fill="#000000" stroke="transparent" points="2106.5,-253 2106.5,-255 2283.5,-255 2283.5,-253 2106.5,-253"/>
<text text-anchor="start" x="2118" y="-239.8" font-family="arial" font-size="14.00"> &#160;&#160;&#160;&#160;RD &#160;&#160;&#160;</text>
<text text-anchor="start" x="2190.5" y="-239.8" font-family="arial" font-size="14.00">CAN3:4:Vcc</text>
<polygon fill="#000000" stroke="transparent" points="2106.5,-232 2106.5,-234 2283.5,-234 2283.5,-232 2106.5,-232"/>
<polygon fill="#ff0000" stroke="transparent" points="2106.5,-230 2106.5,-232 2283.5,-232 2283.5,-230 2106.5,-230"/>
<polygon fill="#000000" stroke="transparent" points="2106.5,-228 2106.5,-230 2283.5,-230 2283.5,-228 2106.5,-228"/>
<text text-anchor="start" x="2108.5" y="-214.8" font-family="arial" font-size="14.00"> </text>
</g>
<!-- F9&#45;&#45;Cable_Stub_2 -->
<g id="edge25" class="edge">
<title>F9:e&#45;&#45;Cable_Stub_2:w</title>
<path fill="none" stroke="#000000" stroke-width="2" d="M1888.5,-337C1984.61,-337.89 2006.56,-304.89 2106,-304"/>
<path fill="none" stroke="#000000" stroke-width="2" d="M1888.5,-339C1986.27,-339 2008.23,-306 2106,-306"/>
<path fill="none" stroke="#000000" stroke-width="2" d="M1888.5,-341C1987.94,-340.11 2009.89,-307.11 2106,-308"/>
</g>
<!-- F10 -->
<g id="node11" class="node">
<title>F10</title>
<polygon fill="#ffffff" stroke="black" points="1887,-303.5 1818,-303.5 1818,-280.5 1887,-280.5 1887,-303.5"/>
<polygon fill="none" stroke="black" points="1818.5,-280 1818.5,-303 1887.5,-303 1887.5,-280 1818.5,-280"/>
<text text-anchor="start" x="1822.5" y="-287.8" font-family="arial" font-size="14.00">SPC&#45;01T</text>
</g>
<!-- F10&#45;&#45;Cable_Stub_2 -->
<g id="edge27" class="edge">
<title>F10:e&#45;&#45;Cable_Stub_2:w</title>
<path fill="none" stroke="#000000" stroke-width="2" d="M1888.5,-290C1984.45,-290.18 2008.37,-279.18 2106,-279"/>
<path fill="none" stroke="#ffffff" stroke-width="2" d="M1888.5,-292C1985.29,-292 2009.21,-281 2106,-281"/>
<path fill="none" stroke="#000000" stroke-width="2" d="M1888.5,-294C1986.13,-293.82 2010.05,-282.82 2106,-283"/>
</g>
<!-- F11 -->
<g id="node12" class="node">
<title>F11</title>
<polygon fill="#ffffff" stroke="black" points="1887,-256.5 1818,-256.5 1818,-233.5 1887,-233.5 1887,-256.5"/>
<polygon fill="none" stroke="black" points="1818.5,-233 1818.5,-256 1887.5,-256 1887.5,-233 1818.5,-233"/>
<text text-anchor="start" x="1822.5" y="-240.8" font-family="arial" font-size="14.00">SPC&#45;01T</text>
</g>
<!-- F11&#45;&#45;Cable_Stub_2 -->
<g id="edge29" class="edge">
<title>F11:e&#45;&#45;Cable_Stub_2:w</title>
<path fill="none" stroke="#000000" stroke-width="2" d="M1888.5,-243C1986.13,-243.18 2010.05,-254.18 2106,-254"/>
<path fill="none" stroke="#0066ff" stroke-width="2" d="M1888.5,-245C1985.29,-245 2009.21,-256 2106,-256"/>
<path fill="none" stroke="#000000" stroke-width="2" d="M1888.5,-247C1984.45,-246.82 2008.37,-257.82 2106,-258"/>
</g>
<!-- F12 -->
<g id="node13" class="node">
<title>F12</title>
<polygon fill="#ffffff" stroke="black" points="1887,-209.5 1818,-209.5 1818,-186.5 1887,-186.5 1887,-209.5"/>
<polygon fill="none" stroke="black" points="1818.5,-186 1818.5,-209 1887.5,-209 1887.5,-186 1818.5,-186"/>
<text text-anchor="start" x="1822.5" y="-193.8" font-family="arial" font-size="14.00">SPC&#45;01T</text>
</g>
<!-- F12&#45;&#45;Cable_Stub_2 -->
<g id="edge31" class="edge">
<title>F12:e&#45;&#45;Cable_Stub_2:w</title>
<path fill="none" stroke="#000000" stroke-width="2" d="M1888.5,-196C1987.94,-196.89 2009.89,-229.89 2106,-229"/>
<path fill="none" stroke="#ff0000" stroke-width="2" d="M1888.5,-198C1986.27,-198 2008.23,-231 2106,-231"/>
<path fill="none" stroke="#000000" stroke-width="2" d="M1888.5,-200C1984.61,-199.11 2006.56,-232.11 2106,-233"/>
</g>
<!-- CAN3 -->
<g id="node14" class="node">
<title>CAN3</title>
<polygon fill="#ffffff" stroke="black" points="2646,-361 2427,-361 2427,-223 2646,-223 2646,-361"/>
<polygon fill="none" stroke="black" points="2427.5,-338 2427.5,-361 2646.5,-361 2646.5,-338 2427.5,-338"/>
<text text-anchor="start" x="2517.5" y="-345.8" font-family="arial" font-size="14.00">CAN3</text>
<polygon fill="none" stroke="black" points="2427.5,-315 2427.5,-338 2517.5,-338 2517.5,-315 2427.5,-315"/>
<text text-anchor="start" x="2431.5" y="-322.8" font-family="arial" font-size="14.00">Hirose DF13</text>
<polygon fill="none" stroke="black" points="2517.5,-315 2517.5,-338 2569.5,-338 2569.5,-315 2517.5,-315"/>
<text text-anchor="start" x="2521.5" y="-322.8" font-family="arial" font-size="14.00">female</text>
<polygon fill="none" stroke="black" points="2569.5,-315 2569.5,-338 2609.5,-338 2609.5,-315 2569.5,-315"/>
<text text-anchor="start" x="2573.5" y="-322.8" font-family="arial" font-size="14.00">4&#45;pin</text>
<polygon fill="none" stroke="black" points="2609.5,-315 2609.5,-338 2638.5,-338 2638.5,-315 2609.5,-315"/>
<text text-anchor="start" x="2613.5" y="-322.8" font-family="arial" font-size="14.00">GY</text>
<polygon fill="#999999" stroke="transparent" points="2638.5,-315 2638.5,-338 2646.5,-338 2646.5,-315 2638.5,-315"/>
<polygon fill="none" stroke="black" points="2638.5,-315 2638.5,-338 2646.5,-338 2646.5,-315 2638.5,-315"/>
<polygon fill="none" stroke="black" points="2427.5,-292 2427.5,-315 2517.5,-315 2517.5,-292 2427.5,-292"/>
<text text-anchor="start" x="2468" y="-299.8" font-family="arial" font-size="14.00">1</text>
<polygon fill="none" stroke="black" points="2517.5,-292 2517.5,-315 2646.5,-315 2646.5,-292 2517.5,-292"/>
<text text-anchor="start" x="2566" y="-299.8" font-family="arial" font-size="14.00">GND</text>
<polygon fill="none" stroke="black" points="2427.5,-269 2427.5,-292 2517.5,-292 2517.5,-269 2427.5,-269"/>
<text text-anchor="start" x="2468" y="-276.8" font-family="arial" font-size="14.00">2</text>
<polygon fill="none" stroke="black" points="2517.5,-269 2517.5,-292 2646.5,-292 2646.5,-269 2517.5,-269"/>
<text text-anchor="start" x="2558.5" y="-276.8" font-family="arial" font-size="14.00">CAN_L</text>
<polygon fill="none" stroke="black" points="2427.5,-246 2427.5,-269 2517.5,-269 2517.5,-246 2427.5,-246"/>
<text text-anchor="start" x="2468" y="-253.8" font-family="arial" font-size="14.00">3</text>
<polygon fill="none" stroke="black" points="2517.5,-246 2517.5,-269 2646.5,-269 2646.5,-246 2517.5,-246"/>
<text text-anchor="start" x="2557.5" y="-253.8" font-family="arial" font-size="14.00">CAN_H</text>
<polygon fill="none" stroke="black" points="2427.5,-223 2427.5,-246 2517.5,-246 2517.5,-223 2427.5,-223"/>
<text text-anchor="start" x="2468" y="-230.8" font-family="arial" font-size="14.00">4</text>
<polygon fill="none" stroke="black" points="2517.5,-223 2517.5,-246 2646.5,-246 2646.5,-223 2517.5,-223"/>
<text text-anchor="start" x="2569.5" y="-230.8" font-family="arial" font-size="14.00">Vcc</text>
</g>
<!-- CAN2 -->
<g id="node15" class="node">
<title>CAN2</title>
<polygon fill="#ffffff" stroke="black" points="1962,-152 1743,-152 1743,-14 1962,-14 1962,-152"/>
<polygon fill="none" stroke="black" points="1743.5,-129 1743.5,-152 1962.5,-152 1962.5,-129 1743.5,-129"/>
<text text-anchor="start" x="1833.5" y="-136.8" font-family="arial" font-size="14.00">CAN2</text>
<polygon fill="none" stroke="black" points="1743.5,-106 1743.5,-129 1833.5,-129 1833.5,-106 1743.5,-106"/>
<text text-anchor="start" x="1747.5" y="-113.8" font-family="arial" font-size="14.00">Hirose DF13</text>
<polygon fill="none" stroke="black" points="1833.5,-106 1833.5,-129 1885.5,-129 1885.5,-106 1833.5,-106"/>
<text text-anchor="start" x="1837.5" y="-113.8" font-family="arial" font-size="14.00">female</text>
<polygon fill="none" stroke="black" points="1885.5,-106 1885.5,-129 1925.5,-129 1925.5,-106 1885.5,-106"/>
<text text-anchor="start" x="1889.5" y="-113.8" font-family="arial" font-size="14.00">4&#45;pin</text>
<polygon fill="none" stroke="black" points="1925.5,-106 1925.5,-129 1954.5,-129 1954.5,-106 1925.5,-106"/>
<text text-anchor="start" x="1929.5" y="-113.8" font-family="arial" font-size="14.00">GY</text>
<polygon fill="#999999" stroke="transparent" points="1954.5,-106 1954.5,-129 1962.5,-129 1962.5,-106 1954.5,-106"/>
<polygon fill="none" stroke="black" points="1954.5,-106 1954.5,-129 1962.5,-129 1962.5,-106 1954.5,-106"/>
<polygon fill="none" stroke="black" points="1743.5,-83 1743.5,-106 1833.5,-106 1833.5,-83 1743.5,-83"/>
<text text-anchor="start" x="1784" y="-90.8" font-family="arial" font-size="14.00">1</text>
<polygon fill="none" stroke="black" points="1833.5,-83 1833.5,-106 1962.5,-106 1962.5,-83 1833.5,-83"/>
<text text-anchor="start" x="1882" y="-90.8" font-family="arial" font-size="14.00">GND</text>
<polygon fill="none" stroke="black" points="1743.5,-60 1743.5,-83 1833.5,-83 1833.5,-60 1743.5,-60"/>
<text text-anchor="start" x="1784" y="-67.8" font-family="arial" font-size="14.00">2</text>
<polygon fill="none" stroke="black" points="1833.5,-60 1833.5,-83 1962.5,-83 1962.5,-60 1833.5,-60"/>
<text text-anchor="start" x="1874.5" y="-67.8" font-family="arial" font-size="14.00">CAN_L</text>
<polygon fill="none" stroke="black" points="1743.5,-37 1743.5,-60 1833.5,-60 1833.5,-37 1743.5,-37"/>
<text text-anchor="start" x="1784" y="-44.8" font-family="arial" font-size="14.00">3</text>
<polygon fill="none" stroke="black" points="1833.5,-37 1833.5,-60 1962.5,-60 1962.5,-37 1833.5,-37"/>
<text text-anchor="start" x="1873.5" y="-44.8" font-family="arial" font-size="14.00">CAN_H</text>
<polygon fill="none" stroke="black" points="1743.5,-14 1743.5,-37 1833.5,-37 1833.5,-14 1743.5,-14"/>
<text text-anchor="start" x="1784" y="-21.8" font-family="arial" font-size="14.00">4</text>
<polygon fill="none" stroke="black" points="1833.5,-14 1833.5,-37 1962.5,-37 1962.5,-14 1833.5,-14"/>
<text text-anchor="start" x="1885.5" y="-21.8" font-family="arial" font-size="14.00">Vcc</text>
</g>
<!-- Cable_Stub_1&#45;&#45;F1 -->
<g id="edge2" class="edge">
<title>Cable_Stub_1:e&#45;&#45;F1:w</title>
<path fill="none" stroke="#000000" stroke-width="2" d="M536,-199C603.53,-200.28 616.21,-233.28 680,-232"/>
<path fill="none" stroke="#000000" stroke-width="2" d="M536,-201C601.66,-201 614.34,-234 680,-234"/>
<path fill="none" stroke="#000000" stroke-width="2" d="M536,-203C599.79,-201.72 612.47,-234.72 680,-236"/>
</g>
<!-- Cable_Stub_1&#45;&#45;F2 -->
<g id="edge4" class="edge">
<title>Cable_Stub_1:e&#45;&#45;F2:w</title>
<path fill="none" stroke="#000000" stroke-width="2" d="M536,-174C601.34,-174.36 616.96,-185.36 680,-185"/>
<path fill="none" stroke="#ffffff" stroke-width="2" d="M536,-176C600.19,-176 615.81,-187 680,-187"/>
<path fill="none" stroke="#000000" stroke-width="2" d="M536,-178C599.04,-177.64 614.66,-188.64 680,-189"/>
</g>
<!-- Cable_Stub_1&#45;&#45;F3 -->
<g id="edge6" class="edge">
<title>Cable_Stub_1:e&#45;&#45;F3:w</title>
<path fill="none" stroke="#000000" stroke-width="2" d="M536,-149C599.04,-149.36 614.66,-138.36 680,-138"/>
<path fill="none" stroke="#0066ff" stroke-width="2" d="M536,-151C600.19,-151 615.81,-140 680,-140"/>
<path fill="none" stroke="#000000" stroke-width="2" d="M536,-153C601.34,-152.64 616.96,-141.64 680,-142"/>
</g>
<!-- Cable_Stub_1&#45;&#45;F4 -->
<g id="edge8" class="edge">
<title>Cable_Stub_1:e&#45;&#45;F4:w</title>
<path fill="none" stroke="#000000" stroke-width="2" d="M536,-124C599.79,-125.28 612.47,-92.28 680,-91"/>
<path fill="none" stroke="#ff0000" stroke-width="2" d="M536,-126C601.66,-126 614.34,-93 680,-93"/>
<path fill="none" stroke="#000000" stroke-width="2" d="M536,-128C603.53,-126.72 616.21,-93.72 680,-95"/>
</g>
<!-- Cable_Main_1&#45;&#45;F5 -->
<g id="edge10" class="edge">
<title>Cable_Main_1:e&#45;&#45;F5:w</title>
<path fill="none" stroke="#000000" stroke-width="2" d="M1065,-199C1132.53,-200.28 1145.21,-233.28 1209,-232"/>
<path fill="none" stroke="#ffffff" stroke-width="2" d="M1065,-201C1130.66,-201 1143.34,-234 1209,-234"/>
<path fill="none" stroke="#000000" stroke-width="2" d="M1065,-203C1128.79,-201.72 1141.47,-234.72 1209,-236"/>
</g>
<!-- Cable_Main_1&#45;&#45;F6 -->
<g id="edge12" class="edge">
<title>Cable_Main_1:e&#45;&#45;F6:w</title>
<path fill="none" stroke="#000000" stroke-width="2" d="M1065,-174C1130.34,-174.36 1145.96,-185.36 1209,-185"/>
<path fill="none" stroke="#ffffff" stroke-width="2" d="M1065,-176C1129.19,-176 1144.81,-187 1209,-187"/>
<path fill="none" stroke="#000000" stroke-width="2" d="M1065,-178C1128.04,-177.64 1143.66,-188.64 1209,-189"/>
</g>
<!-- Cable_Main_1&#45;&#45;F7 -->
<g id="edge14" class="edge">
<title>Cable_Main_1:e&#45;&#45;F7:w</title>
<path fill="none" stroke="#000000" stroke-width="2" d="M1065,-149C1128.04,-149.36 1143.66,-138.36 1209,-138"/>
<path fill="none" stroke="#ffffff" stroke-width="2" d="M1065,-151C1129.19,-151 1144.81,-140 1209,-140"/>
<path fill="none" stroke="#000000" stroke-width="2" d="M1065,-153C1130.34,-152.64 1145.96,-141.64 1209,-142"/>
</g>
<!-- Cable_Main_1&#45;&#45;F8 -->
<g id="edge16" class="edge">
<title>Cable_Main_1:e&#45;&#45;F8:w</title>
<path fill="none" stroke="#000000" stroke-width="2" d="M1065,-124C1128.79,-125.28 1141.47,-92.28 1209,-91"/>
<path fill="none" stroke="#ffffff" stroke-width="2" d="M1065,-126C1130.66,-126 1143.34,-93 1209,-93"/>
<path fill="none" stroke="#000000" stroke-width="2" d="M1065,-128C1132.53,-126.72 1145.21,-93.72 1209,-95"/>
</g>
<!-- Cable_Main_2&#45;&#45;F9 -->
<g id="edge18" class="edge">
<title>Cable_Main_2:e&#45;&#45;F9:w</title>
<path fill="none" stroke="#000000" stroke-width="2" d="M1597.5,-303C1697.68,-303.91 1719.68,-337.91 1816.5,-337"/>
<path fill="none" stroke="#ffffff" stroke-width="2" d="M1597.5,-305C1696,-305 1718,-339 1816.5,-339"/>
<path fill="none" stroke="#000000" stroke-width="2" d="M1597.5,-307C1694.32,-306.09 1716.32,-340.09 1816.5,-341"/>
</g>
<!-- Cable_Main_2&#45;&#45;F10 -->
<g id="edge20" class="edge">
<title>Cable_Main_2:e&#45;&#45;F10:w</title>
<path fill="none" stroke="#000000" stroke-width="2" d="M1597.5,-278C1695.87,-278.21 1719.91,-290.21 1816.5,-290"/>
<path fill="none" stroke="#ffffff" stroke-width="2" d="M1597.5,-280C1694.98,-280 1719.02,-292 1816.5,-292"/>
<path fill="none" stroke="#000000" stroke-width="2" d="M1597.5,-282C1694.09,-281.79 1718.13,-293.79 1816.5,-294"/>
</g>
<!-- Cable_Main_2&#45;&#45;F11 -->
<g id="edge22" class="edge">
<title>Cable_Main_2:e&#45;&#45;F11:w</title>
<path fill="none" stroke="#000000" stroke-width="2" d="M1597.5,-253C1694.17,-253.15 1718.3,-243.15 1816.5,-243"/>
<path fill="none" stroke="#ffffff" stroke-width="2" d="M1597.5,-255C1694.93,-255 1719.07,-245 1816.5,-245"/>
<path fill="none" stroke="#000000" stroke-width="2" d="M1597.5,-257C1695.7,-256.85 1719.83,-246.85 1816.5,-247"/>
</g>
<!-- Cable_Main_2&#45;&#45;F12 -->
<g id="edge24" class="edge">
<title>Cable_Main_2:e&#45;&#45;F12:w</title>
<path fill="none" stroke="#000000" stroke-width="2" d="M1597.5,-228C1694.23,-228.86 1716.49,-196.86 1816.5,-196"/>
<path fill="none" stroke="#ffffff" stroke-width="2" d="M1597.5,-230C1695.87,-230 1718.13,-198 1816.5,-198"/>
<path fill="none" stroke="#000000" stroke-width="2" d="M1597.5,-232C1697.51,-231.14 1719.77,-199.14 1816.5,-200"/>
</g>
<!-- Cable_Stub_2&#45;&#45;CAN3 -->
<g id="edge26" class="edge">
<title>Cable_Stub_2:e&#45;&#45;CAN3:w</title>
<path fill="none" stroke="#000000" stroke-width="2" d="M2283,-304C2346.76,-304.02 2362.75,-302.02 2427,-302"/>
<path fill="none" stroke="#000000" stroke-width="2" d="M2283,-306C2347.01,-306 2362.99,-304 2427,-304"/>
<path fill="none" stroke="#000000" stroke-width="2" d="M2283,-308C2347.25,-307.98 2363.24,-305.98 2427,-306"/>
</g>
<!-- Cable_Stub_2&#45;&#45;CAN3 -->
<g id="edge28" class="edge">
<title>Cable_Stub_2:e&#45;&#45;CAN3:w</title>
<path fill="none" stroke="#000000" stroke-width="2" d="M2283,-279C2346.88,-279 2362.87,-278 2427,-278"/>
<path fill="none" stroke="#ffffff" stroke-width="2" d="M2283,-281C2347,-281 2363,-280 2427,-280"/>
<path fill="none" stroke="#000000" stroke-width="2" d="M2283,-283C2347.13,-283 2363.12,-282 2427,-282"/>
</g>
<!-- Cable_Stub_2&#45;&#45;CAN3 -->
<g id="edge30" class="edge">
<title>Cable_Stub_2:e&#45;&#45;CAN3:w</title>
<path fill="none" stroke="#000000" stroke-width="2" d="M2283,-254C2347.13,-254 2363.12,-255 2427,-255"/>
<path fill="none" stroke="#0066ff" stroke-width="2" d="M2283,-256C2347,-256 2363,-257 2427,-257"/>
<path fill="none" stroke="#000000" stroke-width="2" d="M2283,-258C2346.88,-258 2362.87,-259 2427,-259"/>
</g>
<!-- Cable_Stub_2&#45;&#45;CAN3 -->
<g id="edge32" class="edge">
<title>Cable_Stub_2:e&#45;&#45;CAN3:w</title>
<path fill="none" stroke="#000000" stroke-width="2" d="M2283,-229C2347.38,-229.03 2363.36,-232.03 2427,-232"/>
<path fill="none" stroke="#ff0000" stroke-width="2" d="M2283,-231C2347.01,-231 2362.99,-234 2427,-234"/>
<path fill="none" stroke="#000000" stroke-width="2" d="M2283,-233C2346.64,-232.97 2362.62,-235.97 2427,-236"/>
</g>
<!-- Cable_Stub_3&#45;&#45;CAN2 -->
<g id="edge34" class="edge">
<title>Cable_Stub_3:e&#45;&#45;CAN2:w</title>
<path fill="none" stroke="#000000" stroke-width="2" d="M1599,-95C1662.76,-95.02 1678.75,-93.02 1743,-93"/>
<path fill="none" stroke="#000000" stroke-width="2" d="M1599,-97C1663.01,-97 1678.99,-95 1743,-95"/>
<path fill="none" stroke="#000000" stroke-width="2" d="M1599,-99C1663.25,-98.98 1679.24,-96.98 1743,-97"/>
</g>
<!-- Cable_Stub_3&#45;&#45;CAN2 -->
<g id="edge36" class="edge">
<title>Cable_Stub_3:e&#45;&#45;CAN2:w</title>
<path fill="none" stroke="#000000" stroke-width="2" d="M1599,-70C1662.88,-70 1678.87,-69 1743,-69"/>
<path fill="none" stroke="#ffffff" stroke-width="2" d="M1599,-72C1663,-72 1679,-71 1743,-71"/>
<path fill="none" stroke="#000000" stroke-width="2" d="M1599,-74C1663.13,-74 1679.12,-73 1743,-73"/>
</g>
<!-- Cable_Stub_3&#45;&#45;CAN2 -->
<g id="edge38" class="edge">
<title>Cable_Stub_3:e&#45;&#45;CAN2:w</title>
<path fill="none" stroke="#000000" stroke-width="2" d="M1599,-45C1663.13,-45 1679.12,-46 1743,-46"/>
<path fill="none" stroke="#0066ff" stroke-width="2" d="M1599,-47C1663,-47 1679,-48 1743,-48"/>
<path fill="none" stroke="#000000" stroke-width="2" d="M1599,-49C1662.88,-49 1678.87,-50 1743,-50"/>
</g>
<!-- Cable_Stub_3&#45;&#45;CAN2 -->
<g id="edge40" class="edge">
<title>Cable_Stub_3:e&#45;&#45;CAN2:w</title>
<path fill="none" stroke="#000000" stroke-width="2" d="M1599,-20C1663.38,-20.03 1679.36,-23.03 1743,-23"/>
<path fill="none" stroke="#ff0000" stroke-width="2" d="M1599,-22C1663.01,-22 1678.99,-25 1743,-25"/>
<path fill="none" stroke="#000000" stroke-width="2" d="M1599,-24C1662.64,-23.97 1678.62,-26.97 1743,-27"/>
</g>
</g>
</svg>
