<?xml version="1.0" encoding="UTF-8" standalone="no"?>
<!DOCTYPE svg PUBLIC "-//W3C//DTD SVG 1.1//EN"
 "http://www.w3.org/Graphics/SVG/1.1/DTD/svg11.dtd">
<!-- Generated by graphviz version 2.44.1 (20200629.0800)
 -->
<!-- Pages: 1 -->
<svg width="960pt" height="225pt"
 viewBox="0.00 0.00 960.00 224.50" xmlns="http://www.w3.org/2000/svg" xmlns:xlink="http://www.w3.org/1999/xlink">
<g id="graph0" class="graph" transform="scale(1 1) rotate(0) translate(4 220.5)">
<polygon fill="#ffffff" stroke="transparent" points="-4,4 -4,-220.5 956,-220.5 956,4 -4,4"/>
<!-- Sonar -->
<g id="node1" class="node">
<title>Sonar</title>
<polygon fill="#ffffff" stroke="black" points="182,-184 0,-184 0,0 182,0 182,-184"/>
<polygon fill="none" stroke="black" points="0,-161 0,-184 182,-184 182,-161 0,-161"/>
<text text-anchor="start" x="72" y="-168.8" font-family="arial" font-size="14.00">Sonar</text>
<polygon fill="none" stroke="black" points="0,-138 0,-161 54,-161 54,-138 0,-138"/>
<text text-anchor="start" x="4" y="-145.8" font-family="arial" font-size="14.00">Dupont</text>
<polygon fill="none" stroke="black" points="54,-138 54,-161 106,-161 106,-138 54,-138"/>
<text text-anchor="start" x="58" y="-145.8" font-family="arial" font-size="14.00">female</text>
<polygon fill="none" stroke="black" points="106,-138 106,-161 146,-161 146,-138 106,-138"/>
<text text-anchor="start" x="110" y="-145.8" font-family="arial" font-size="14.00">6&#45;pin</text>
<polygon fill="none" stroke="black" points="146,-138 146,-161 174,-161 174,-138 146,-138"/>
<text text-anchor="start" x="150" y="-145.8" font-family="arial" font-size="14.00">BK</text>
<polygon fill="#000000" stroke="transparent" points="174,-138 174,-161 182,-161 182,-138 174,-138"/>
<polygon fill="none" stroke="black" points="174,-138 174,-161 182,-161 182,-138 174,-138"/>
<polygon fill="none" stroke="black" points="0,-115 0,-138 107,-138 107,-115 0,-115"/>
<text text-anchor="start" x="37.5" y="-122.8" font-family="arial" font-size="14.00">GND</text>
<polygon fill="none" stroke="black" points="107,-115 107,-138 182,-138 182,-115 107,-115"/>
<text text-anchor="start" x="140" y="-122.8" font-family="arial" font-size="14.00">1</text>
<polygon fill="none" stroke="black" points="0,-92 0,-115 107,-115 107,-92 0,-92"/>
<text text-anchor="start" x="41" y="-99.8" font-family="arial" font-size="14.00">Vcc</text>
<polygon fill="none" stroke="black" points="107,-92 107,-115 182,-115 182,-92 107,-92"/>
<text text-anchor="start" x="140" y="-99.8" font-family="arial" font-size="14.00">2</text>
<polygon fill="none" stroke="black" points="0,-69 0,-92 107,-92 107,-69 0,-69"/>
<text text-anchor="start" x="33.5" y="-76.8" font-family="arial" font-size="14.00">Signal</text>
<polygon fill="none" stroke="black" points="107,-69 107,-92 182,-92 182,-69 107,-69"/>
<text text-anchor="start" x="140" y="-76.8" font-family="arial" font-size="14.00">3</text>
<polygon fill="none" stroke="black" points="0,-46 0,-69 107,-69 107,-46 0,-46"/>
<text text-anchor="start" x="43" y="-53.8" font-family="arial" font-size="14.00">NC</text>
<polygon fill="none" stroke="black" points="107,-46 107,-69 182,-69 182,-46 107,-46"/>
<text text-anchor="start" x="140" y="-53.8" font-family="arial" font-size="14.00">4</text>
<polygon fill="none" stroke="black" points="0,-23 0,-46 107,-46 107,-23 0,-23"/>
<text text-anchor="start" x="43" y="-30.8" font-family="arial" font-size="14.00">NC</text>
<polygon fill="none" stroke="black" points="107,-23 107,-46 182,-46 182,-23 107,-23"/>
<text text-anchor="start" x="140" y="-30.8" font-family="arial" font-size="14.00">5</text>
<polygon fill="none" stroke="black" points="0,0 0,-23 107,-23 107,0 0,0"/>
<text text-anchor="start" x="43" y="-7.8" font-family="arial" font-size="14.00">NC</text>
<polygon fill="none" stroke="black" points="107,0 107,-23 182,-23 182,0 107,0"/>
<text text-anchor="start" x="140" y="-7.8" font-family="arial" font-size="14.00">6</text>
</g>
<!-- Cable -->
<g id="node3" class="node">
<title>Cable</title>
<polygon fill="#ffffff" stroke="black" points="628,-216.5 326,-216.5 326,-57.5 628,-57.5 628,-216.5"/>
<polygon fill="none" stroke="black" points="326,-193 326,-216 628,-216 628,-193 326,-193"/>
<text text-anchor="start" x="458" y="-200.8" font-family="arial" font-size="14.00">Cable</text>
<polygon fill="none" stroke="black" points="326,-170 326,-193 405,-193 405,-170 326,-170"/>
<text text-anchor="start" x="345.5" y="-177.8" font-family="arial" font-size="14.00">Digital</text>
<polygon fill="none" stroke="black" points="405,-170 405,-193 459,-193 459,-170 405,-170"/>
<text text-anchor="start" x="424" y="-177.8" font-family="arial" font-size="14.00">3x</text>
<polygon fill="none" stroke="black" points="459,-170 459,-193 553,-193 553,-170 459,-170"/>
<text text-anchor="start" x="478" y="-177.8" font-family="arial" font-size="14.00">AWG 28</text>
<polygon fill="none" stroke="black" points="553,-170 553,-193 628,-193 628,-170 553,-170"/>
<text text-anchor="start" x="572" y="-177.8" font-family="arial" font-size="14.00">0.2 m</text>
<text text-anchor="start" x="372.5" y="-156.8" font-family="arial" font-size="14.00"> </text>
<text text-anchor="start" x="332" y="-137.8" font-family="arial" font-size="14.00">Sonar:1:GND</text>
<text text-anchor="start" x="427" y="-137.8" font-family="arial" font-size="14.00"> &#160;&#160;&#160;&#160;1:BK &#160;&#160;&#160;</text>
<text text-anchor="start" x="503" y="-137.8" font-family="arial" font-size="14.00">SensorHub:1:GND</text>
<polygon fill="#000000" stroke="transparent" points="326,-130 326,-132 628,-132 628,-130 326,-130"/>
<polygon fill="#000000" stroke="transparent" points="326,-128 326,-130 628,-130 628,-128 326,-128"/>
<polygon fill="#000000" stroke="transparent" points="326,-126 326,-128 628,-128 628,-126 326,-126"/>
<text text-anchor="start" x="335" y="-112.8" font-family="arial" font-size="14.00">Sonar:2:Vcc</text>
<text text-anchor="start" x="426.5" y="-112.8" font-family="arial" font-size="14.00"> &#160;&#160;&#160;&#160;2:RD &#160;&#160;&#160;</text>
<text text-anchor="start" x="506.5" y="-112.8" font-family="arial" font-size="14.00">SensorHub:2:Vcc</text>
<polygon fill="#000000" stroke="transparent" points="326,-105 326,-107 628,-107 628,-105 326,-105"/>
<polygon fill="#ff0000" stroke="transparent" points="326,-103 326,-105 628,-105 628,-103 326,-103"/>
<polygon fill="#000000" stroke="transparent" points="326,-101 326,-103 628,-103 628,-101 326,-101"/>
<text text-anchor="start" x="328" y="-87.8" font-family="arial" font-size="14.00">Sonar:3:Signal</text>
<text text-anchor="start" x="425" y="-87.8" font-family="arial" font-size="14.00"> &#160;&#160;&#160;&#160;3:WH &#160;&#160;&#160;</text>
<text text-anchor="start" x="499" y="-87.8" font-family="arial" font-size="14.00">SensorHub:3:Signal</text>
<polygon fill="#000000" stroke="transparent" points="326,-80 326,-82 628,-82 628,-80 326,-80"/>
<polygon fill="#ffffff" stroke="transparent" points="326,-78 326,-80 628,-80 628,-78 326,-78"/>
<polygon fill="#000000" stroke="transparent" points="326,-76 326,-78 628,-78 628,-76 326,-76"/>
<text text-anchor="start" x="372.5" y="-62.8" font-family="arial" font-size="14.00"> </text>
</g>
<!-- Sonar&#45;&#45;Cable -->
<g id="edge1" class="edge">
<title>Sonar:e&#45;&#45;Cable:w</title>
<path fill="none" stroke="#000000" stroke-width="2" d="M182,-125C246.25,-125.02 262.24,-127.02 326,-127"/>
<path fill="none" stroke="#000000" stroke-width="2" d="M182,-127C246.01,-127 261.99,-129 326,-129"/>
<path fill="none" stroke="#000000" stroke-width="2" d="M182,-129C245.76,-128.98 261.75,-130.98 326,-131"/>
</g>
<!-- Sonar&#45;&#45;Cable -->
<g id="edge3" class="edge">
<title>Sonar:e&#45;&#45;Cable:w</title>
<path fill="none" stroke="#000000" stroke-width="2" d="M182,-102C246,-102 262,-102 326,-102"/>
<path fill="none" stroke="#ff0000" stroke-width="2" d="M182,-104C246,-104 262,-104 326,-104"/>
<path fill="none" stroke="#000000" stroke-width="2" d="M182,-106C246,-106 262,-106 326,-106"/>
</g>
<!-- Sonar&#45;&#45;Cable -->
<g id="edge5" class="edge">
<title>Sonar:e&#45;&#45;Cable:w</title>
<path fill="none" stroke="#000000" stroke-width="2" d="M182,-78C245.88,-78 261.87,-77 326,-77"/>
<path fill="none" stroke="#ffffff" stroke-width="2" d="M182,-80C246,-80 262,-79 326,-79"/>
<path fill="none" stroke="#000000" stroke-width="2" d="M182,-82C246.13,-82 262.12,-81 326,-81"/>
</g>
<!-- SensorHub -->
<g id="node2" class="node">
<title>SensorHub</title>
<polygon fill="#ffffff" stroke="black" points="952,-185.5 772,-185.5 772,-70.5 952,-70.5 952,-185.5"/>
<polygon fill="none" stroke="black" points="772,-162 772,-185 952,-185 952,-162 772,-162"/>
<text text-anchor="start" x="826" y="-169.8" font-family="arial" font-size="14.00">SensorHub</text>
<polygon fill="none" stroke="black" points="772,-139 772,-162 824,-162 824,-139 772,-139"/>
<text text-anchor="start" x="776" y="-146.8" font-family="arial" font-size="14.00">Futaba</text>
<polygon fill="none" stroke="black" points="824,-139 824,-162 876,-162 876,-139 824,-139"/>
<text text-anchor="start" x="828" y="-146.8" font-family="arial" font-size="14.00">female</text>
<polygon fill="none" stroke="black" points="876,-139 876,-162 916,-162 916,-139 876,-139"/>
<text text-anchor="start" x="880" y="-146.8" font-family="arial" font-size="14.00">3&#45;pin</text>
<polygon fill="none" stroke="black" points="916,-139 916,-162 944,-162 944,-139 916,-139"/>
<text text-anchor="start" x="920" y="-146.8" font-family="arial" font-size="14.00">BK</text>
<polygon fill="#000000" stroke="transparent" points="944,-139 944,-162 952,-162 952,-139 944,-139"/>
<polygon fill="none" stroke="black" points="944,-139 944,-162 952,-162 952,-139 944,-139"/>
<polygon fill="none" stroke="black" points="772,-116 772,-139 847,-139 847,-116 772,-116"/>
<text text-anchor="start" x="805" y="-123.8" font-family="arial" font-size="14.00">1</text>
<polygon fill="none" stroke="black" points="847,-116 847,-139 952,-139 952,-116 847,-116"/>
<text text-anchor="start" x="883.5" y="-123.8" font-family="arial" font-size="14.00">GND</text>
<polygon fill="none" stroke="black" points="772,-93 772,-116 847,-116 847,-93 772,-93"/>
<text text-anchor="start" x="805" y="-100.8" font-family="arial" font-size="14.00">2</text>
<polygon fill="none" stroke="black" points="847,-93 847,-116 952,-116 952,-93 847,-93"/>
<text text-anchor="start" x="887" y="-100.8" font-family="arial" font-size="14.00">Vcc</text>
<polygon fill="none" stroke="black" points="772,-70 772,-93 847,-93 847,-70 772,-70"/>
<text text-anchor="start" x="805" y="-77.8" font-family="arial" font-size="14.00">3</text>
<polygon fill="none" stroke="black" points="847,-70 847,-93 952,-93 952,-70 847,-70"/>
<text text-anchor="start" x="879.5" y="-77.8" font-family="arial" font-size="14.00">Signal</text>
</g>
<!-- Cable&#45;&#45;SensorHub -->
<g id="edge2" class="edge">
<title>Cable:e&#45;&#45;SensorHub:w</title>
<path fill="none" stroke="#000000" stroke-width="2" d="M628,-127C691.76,-127.02 707.75,-125.02 772,-125"/>
<path fill="none" stroke="#000000" stroke-width="2" d="M628,-129C692.01,-129 707.99,-127 772,-127"/>
<path fill="none" stroke="#000000" stroke-width="2" d="M628,-131C692.25,-130.98 708.24,-128.98 772,-129"/>
</g>
<!-- Cable&#45;&#45;SensorHub -->
<g id="edge4" class="edge">
<title>Cable:e&#45;&#45;SensorHub:w</title>
<path fill="none" stroke="#000000" stroke-width="2" d="M628,-102C692,-102 708,-102 772,-102"/>
<path fill="none" stroke="#ff0000" stroke-width="2" d="M628,-104C692,-104 708,-104 772,-104"/>
<path fill="none" stroke="#000000" stroke-width="2" d="M628,-106C692,-106 708,-106 772,-106"/>
</g>
<!-- Cable&#45;&#45;SensorHub -->
<g id="edge6" class="edge">
<title>Cable:e&#45;&#45;SensorHub:w</title>
<path fill="none" stroke="#000000" stroke-width="2" d="M628,-77C692.25,-77.02 708.24,-79.02 772,-79"/>
<path fill="none" stroke="#ffffff" stroke-width="2" d="M628,-79C692.01,-79 707.99,-81 772,-81"/>
<path fill="none" stroke="#000000" stroke-width="2" d="M628,-81C691.76,-80.98 707.75,-82.98 772,-83"/>
</g>
</g>
</svg>
